<svg xmlns="http://www.w3.org/2000/svg" xmlns:xlink="http://www.w3.org/1999/xlink" width="705" height="325" viewBox="0 0 705 325"><defs><style>.a{fill:none;}.b{fill:#f2d68c;}.c,.e{fill:#1c1c1c;}.d{clip-path:url(#a);}.e,.f{fill-rule:evenodd;}</style><clipPath id="a"><path class="a" d="M915.766,49.728c-18.54-.673-34.119-3.777-49.183-6.78-22.935-4.571-44.6-8.888-76.513-5.353-14.146,1.566-30.544,5.877-47.9,10.44-29.92,7.866-63.832,16.781-102.16,16.818-38.339-.037-72.252-8.952-102.172-16.818-17.36-4.563-33.757-8.874-47.9-10.44-31.918-3.535-53.579.782-76.512,5.353-15.064,3-30.643,6.107-49.183,6.78A187.312,187.312,0,0,1,300.5,40.444v64.235c0,125.647,101.164,227.918,225.69,228.355,4.477-1.182,28.927-8.035,45.912-20.87,33.521-25.331,52.566-27.509,67.766-27.509h.275c15.189,0,34.231,2.176,67.755,27.509,16.982,12.833,41.428,19.686,45.913,20.87C878.336,332.6,979.5,230.326,979.5,104.679V40.444A187.249,187.249,0,0,1,915.766,49.728Z"/></clipPath></defs><g transform="translate(-287.5 -21.142)"><path class="b" d="M916,43.179c-45.316-1.646-72-18.147-126.639-12.1C750.761,35.354,700.354,58.241,640,58.3c-60.354-.059-110.761-22.946-149.361-27.219C436,25.032,409.316,41.533,364,43.179a178.9,178.9,0,0,1-70-12.1v73.6c0,129.737,104.318,234.909,233,234.909,0,0,28.987-7.057,49-22.18,31.721-23.971,49-26.213,64-26.2,15-.013,32.278,2.229,64,26.2,20.013,15.123,49,22.18,49,22.18,128.682,0,233-105.172,233-234.909v-73.6A178.9,178.9,0,0,1,916,43.179Z"/><path class="c" d="M753,346.142h-.773l-.752-.184c-1.238-.3-30.529-7.555-51.373-23.306-30.331-22.92-46.276-24.891-59.973-24.891-.083,0-.163,0-.247,0-13.709,0-29.651,1.969-59.984,24.891-20.844,15.751-50.135,23.005-51.372,23.306l-.752.184H527a236.957,236.957,0,0,1-169.352-70.723A240.881,240.881,0,0,1,287.5,104.679V21.142l9.061,3.916c.295.126,30.488,12.9,67.2,11.572,17.505-.636,31.9-3.5,47.13-6.54,22.886-4.561,46.553-9.276,80.452-5.524,15.09,1.671,31.934,6.1,49.766,10.787,29.167,7.667,62.225,16.358,98.892,16.393,36.654-.035,69.713-8.726,98.88-16.393,17.832-4.688,34.676-9.116,49.765-10.787,33.9-3.751,57.567.964,80.453,5.524,15.235,3.037,29.625,5.9,47.13,6.54,36.707,1.326,66.911-11.446,67.21-11.575l9.05-3.89.006,83.514a240.884,240.884,0,0,1-70.147,170.74A236.963,236.963,0,0,1,753,346.142ZM300.5,40.444v64.235c0,125.647,101.164,227.918,225.69,228.355,4.477-1.182,28.927-8.035,45.912-20.87,33.521-25.331,52.566-27.509,67.766-27.509h.275c15.189,0,34.231,2.176,67.755,27.509,16.982,12.833,41.428,19.686,45.913,20.87C878.336,332.6,979.5,230.326,979.5,104.679V40.444a187.249,187.249,0,0,1-63.734,9.284c-18.54-.673-34.119-3.777-49.183-6.78-22.935-4.571-44.6-8.888-76.513-5.353-14.146,1.566-30.544,5.877-47.9,10.44-29.92,7.866-63.832,16.781-102.16,16.818-38.339-.037-72.252-8.952-102.172-16.818-17.36-4.563-33.757-8.874-47.9-10.44-31.918-3.535-53.579.782-76.512,5.353-15.064,3-30.643,6.107-49.183,6.78A187.312,187.312,0,0,1,300.5,40.444Z"/><g class="d"><path class="c" d="M412.468,236.392c-1.64.12-2.034-3.559,1.624-2.521a4.6,4.6,0,0,1,3.151,4.232c.389,5.1-4.6,8.248-9.114,9.174-6.507,1.321-12.872-1.569-16.834-6.942-4.909-6.632-4.944-13.576-1.324-20.756,4.222-8.4,13.022-12.7,21.975-12.64A61.647,61.647,0,0,1,435.6,211.97c7.876,3.338,4.586,2.352-4.369-.032-6.857-1.821-17.943-2.158-24.067,2.3-6.584,4.811-1.7,11.36-3.83,16.162-1.248,2.827-4.717,6.69-4.257,9.986s5.164,5.714,8.745,5.642a10.381,10.381,0,0,0,8.184-5.31,4.131,4.131,0,0,0-.693-5C413.676,234.32,413.856,236.294,412.468,236.392Z"/><path class="c" d="M371.367,247c6.424-2.609,12.976-8.65,11.01-16.092a6.881,6.881,0,0,0-5.805-5.407c-5.7-.529-4.14,4.821-1.741,4.2,2.052-.544,1.233-3.411,4.047-1.806,2.45,1.4,3.121,4.5,2.384,7.224-1.141,4.245-5.883,9.11-10.682,10.12-5.288,1.1-12.888-1.166-14.485-5.946-1.584-4.744,2.508-11.43,3.6-15.956,1.841-7.7-7.175-16.059,1.278-24.985,7.848-8.3,22.836-6.455,31.813-4.863,8.85,1.571,17.573,4.071,26.231,6.458,5.174,1.431,10.959,3.488,16.107,5.012,5.534,1.629,19.091,6.865,19.108,6.922a1.7,1.7,0,0,0-.808-1.248c-4.757-1.934-49.313-21.981-57.917-23.885-10.741-2.363-18.442-3.51-29.267-1.029-13.147,3.009-25.31,11.672-29.287,25.269-3.409,11.644-1.474,21.925,7.585,30.392C351.876,248.237,362.1,250.761,371.367,247Zm-28.411-17.466a28.092,28.092,0,0,1-1.559-6.055,27.11,27.11,0,0,1,.2-9.287c1.679-7.208,5.179-13.07,12.592-18.534,6.453-4.737,21.458-9.2,38.841-4.642l.06.013c1.007.158,2.02.337,3.06.534.446.089.9.172,1.348.27a130.421,130.421,0,0,1,18.374,5.179l.1.1a125.334,125.334,0,0,0-29.827-6.6A50.392,50.392,0,0,0,361.3,195.2c-6.8,3.165-16.7,13.625-14.967,28.718l-.083-.145c-3.739-13.01,7.818-26.5,15.066-29.769A47.214,47.214,0,0,1,378.3,190.23c-10.717.136-18.467,2.577-22.937,5.869-7.241,5.333-11.482,10.769-13.029,17.784a27.738,27.738,0,0,0,3.381,20.946C345.926,235.83,343.469,230.926,342.956,229.534Zm17.584,17.608-.085.028c-8.718-1.637-16.01-5.88-19.687-12.317-4.778-8.327-3.941-18.883-2.287-23.582,2.808-8,7.89-13.68,17.02-18.971,10.732-6.216,33.22-9.412,66.481,6.512.486.22.966.434,1.456.665l-.266-.1c-.4-.2-.79-.377-1.19-.564-33.315-15.263-54.377-12.261-64.876-6.171-8.909,5.177-14.31,10.872-17.035,18.645-1.068,3.037-3.123,14.346,2.045,23.362C345.651,240.843,352.106,245.567,360.54,247.142Z"/><path class="c" d="M445.775,243.448c-22.613,9.809-55.835,37.766-57.142,115.681l.564.133a231.14,231.14,0,0,1,3.9-38.314c2.574-11.376,13.264-48.66,44.224-41.237a34.052,34.052,0,0,0,6.358,1c7.87.387,15.7-2.873,16.956-13.6.343-2.983.36-4.677,2.56-1.627,2.107,2.937,6.508,4.478,9.962,4.725,3.592.239,9.059-2.121,12.509-1.079,3.242.971,3.948,6.213,1,6.512-2.259.23-4.982,1.3-4.238,4.458s4.756,3.335,6.746,1.407c2.156-2.1,2.253-6.693,1.741-9.7a17.492,17.492,0,0,0-4.345-9.217c-5.986-7.474-16.526-11.068-25.788-10.786-13.808.593-35.475,13.157-50.672,30.921,1.2-.878,2.578-1.862,4.039-2.883,4.231-4.148,22.463-17.043,27.061-19.129,8.643-3.909,15.037-5.645,22.8-6.179,6.166-.424,22.362,3.531,25.848,15.834l-.2.061c-4.2-12.534-19.62-15.268-25.491-14.868a59.25,59.25,0,0,0-22.236,5.813c-4.113,1.86-19.858,12.209-25.908,17.153,6.342-4.4,13.679-9.221,16.31-10.564a95.372,95.372,0,0,1,21.532-8.377c5.791-1.448,20.847-1.973,23.736,5.373l-.187.079c-3.558-7.353-17.92-6.194-23.429-4.816a91.938,91.938,0,0,0-21.012,8.036c-2.661,1.366-10.519,6.333-17.1,10.75,5.615-3.264,15.581-8.611,18.461-9.818a94.365,94.365,0,0,1,17.406-5.69c4.6-1.006,16.277-1.508,17.838,3.24l-.149.049c-2.081-4.746-13.275-3.833-17.658-2.875a90.318,90.318,0,0,0-16.955,5.46c-3.183,1.326-15.5,7.717-20.482,10.671-.035.029-.073.045-.1.07h0c-1.726,1.172-3.308,2.279-4.626,3.226A77.314,77.314,0,0,0,398.228,301.3c12.045-35.577,33.521-48.072,48.873-54.725a53.869,53.869,0,0,1,40.576-.135c13.076,5.534,23.147,15.48,27.632,27.289a34.222,34.222,0,0,1,1.885,16.257,27.673,27.673,0,0,1-2.073,7.807c-1.028,2.315-2.336,4.612-3.586,6.808a12.787,12.787,0,0,1-2.636,3.359c-2.554,2.247-6.087,5.131-10.1,4.877-8.94-.56-10.239-6.911-15.793-8.39-3.266-.866-8.955-.542-11.425-3.215-2.486-2.691-1.269-8.4,1.293-11.442a11.451,11.451,0,0,1,10.193-3.407,4.5,4.5,0,0,1,3.756,4.066c.039,2.379-1.5.842-2.561,1.979-1.238,1.341,1.614,4.213,3.276.337a5.054,5.054,0,0,0-1.408-5.639c-4.046-3.859-10.2-1.716-14.11,1.535-5.642,4.693-7.611,12.192-5.818,19.333,2.624,10.4,12.822,16.8,23.286,15.866,9.72-.866,18.5-7.964,23.588-16.248a39.274,39.274,0,0,0,3.65-34.223c-4.813-12.662-15.553-23.308-29.467-29.2C473.372,238.321,458.253,238.048,445.775,243.448Z"/><path class="e" d="M425.87,148.856c-.272-1.277-2.685-4.126-2.685-4.126a2.146,2.146,0,0,1-.14.2c-4.9.113-9.01-2.135-9.818-7.281-.819-5.208,4.637-7.9,6.647-7.616,1.914.212,1.522-1.188-.054-1.451-7.747-1.445-10.559,2.966-10.886,8.534-.046.78-.035,1.381-.6,1.036-.559-.247-.79-.123-1.746-.234-1.042-.1-1.134.352-.476,1.888,2.1,4.5,6.273,9.3,13.177,7.959-21.9,14.1-39.024-1.282-42.49-10.561-3.919-10.027,1.922-21.758,8.815-24.134,6.883-2.9,9.2-.591,9.728,1.98.79,2.323-1.513,2.6-3.562,2.608-3.836-.227-7.633,4.7-5.544,10.361,2.335,5.4,6.964,7.943,13.846,5.048,6.629-2.623,8.624-10.38,6.529-16.552C404,109.822,395.258,104.223,384.3,108.7c-10.709,4.2-14.443,17.9-10.269,29.222,3.752,9.693,20.064,24.679,42.779,14.62-22.351,13.739-43.754,1.205-49.7-21.443-4.943-18.817-5.721-44.047-21.253-58.243-13.207-12.07-36.74-4.252-37.358,15.222-.227,7.125,5.412,16.211,12.7,17.654,3.442.681,8.175-.681,10.3-3.712,1.9-2.727.574-5.132-2.188-4.493-1.873.434-3.04,2.975-4.744,3.831a7.925,7.925,0,0,1-6.835.481c-4.535-1.829-7.4-7.864-7.691-12.554-.663-10.646,10.094-19.939,19.577-19.295,23.475,1.6,23.924,40.137,29.761,57.576,6.742,20.147,18.726,33.2,41.531,33.8C408.784,161.578,418.063,158.465,425.87,148.856Zm-2.941-3.749c-.166.246-.332.488-.494.724a1,1,0,0,1,.374-.555c-.034.027-.073.053-.113.082A1.952,1.952,0,0,1,422.929,145.107Z"/><path class="c" d="M358.62,138.383c-5.184-10.154-8.458-19.945-17.95-24.379-12.934-6.04-29.255,5.913-28.773,20.22.452,13.4,17.877,21.241,28.122,11.207,3.731-3.652,5.257-10.971,1.038-15.084-7.194-7.032-16.59,4.446-9.563,8.32l-.125.413c-7.847-4.474,2.6-16.512,10.418-8.885,4.573,4.47,2.9,12.207-1.154,16.173-11.123,10.9-28.085,2.93-29.6-11.353-2.145-20.27,22.737-32.911,37.314-19.336,7.376,6.865,8.776,16.059,13.7,24.444,5.257,8.954,14.673,17.751,24.614,20.79,8.22,2.513,15.98,3.681,27.747.055-14.924,8.139-32.186,4.346-43.993-6.172C366.056,150.915,361.58,144.184,358.62,138.383Z"/><path class="c" d="M381.38,145.646a10.593,10.593,0,0,1-4.848-4.811,31.353,31.353,0,0,1-4.112-14.2,39.461,39.461,0,0,1,3.922-16.78c7.743-15.5,27.527-24.932,43.147-13.437l-.8-.726c-15.624-11.494-35.408-2.062-43.147,13.435A39.415,39.415,0,0,0,371.62,125.9a32.637,32.637,0,0,0,3.649,14.654c1.169,2.208,3.04,3.18,5.312,4.357Z"/><path class="c" d="M370.653,115.047a1.444,1.444,0,0,1,.357,2,1.418,1.418,0,0,1-1.985.358,1.442,1.442,0,0,1-.357-2A1.416,1.416,0,0,1,370.653,115.047Z"/><path class="c" d="M371.972,109.3a1.442,1.442,0,0,1,.355,2,1.415,1.415,0,0,1-1.983.36,1.444,1.444,0,0,1-.355-2A1.416,1.416,0,0,1,371.972,109.3Z"/><path class="c" d="M373.634,104.011a1.266,1.266,0,0,1,.312,1.752,1.243,1.243,0,0,1-1.737.314,1.268,1.268,0,0,1-.311-1.751A1.243,1.243,0,0,1,373.634,104.011Z"/><path class="c" d="M366.678,113.594c-3.233-19.2-6.633-41.689-26.963-49.115-17.071-6.235-33.945,4.625-35.978,22.739l.158,2.152c2.034-18.113,17.817-29.8,34.889-23.562,20.329,7.427,23.727,29.918,26.961,49.118Z"/><path class="c" d="M377.048,99.066a1.265,1.265,0,0,1,.312,1.751,1.241,1.241,0,0,1-1.737.313,1.263,1.263,0,0,1-.311-1.751A1.241,1.241,0,0,1,377.048,99.066Z"/><path class="c" d="M381.662,94.3a1.265,1.265,0,0,1,.315,1.749,1.241,1.241,0,0,1-1.739.314,1.262,1.262,0,0,1-.31-1.75A1.238,1.238,0,0,1,381.662,94.3Z"/><path class="c" d="M386.12,91.231a1.027,1.027,0,0,1-.335,1.4,1.011,1.011,0,0,1-1.394-.34,1.024,1.024,0,0,1,.34-1.4A1.006,1.006,0,0,1,386.12,91.231Z"/><path class="c" d="M391.105,89.214a1.028,1.028,0,0,1-.341,1.406,1.012,1.012,0,0,1-1.392-.341,1.031,1.031,0,0,1,.34-1.406A1.008,1.008,0,0,1,391.105,89.214Z"/><path class="c" d="M396.508,88.017a1.028,1.028,0,0,1-.759,1.231,1.013,1.013,0,0,1-1.216-.765,1.015,1.015,0,1,1,1.975-.466Z"/><path class="c" d="M401.866,87.67a1.024,1.024,0,0,1-.756,1.229,1.022,1.022,0,1,1,.756-1.229Z"/><path class="c" d="M408.073,88.108a1.013,1.013,0,1,1-.873-1.141A1.014,1.014,0,0,1,408.073,88.108Z"/><path class="c" d="M413.215,89.677a1.014,1.014,0,1,1-.875-1.144A1.019,1.019,0,0,1,413.215,89.677Z"/><path class="e" d="M353.177,94.976a4.606,4.606,0,0,0-1.46.105c-1.682-9.974-8.915-13.78-12.848-12.928-4.077.824-6.826,4.124-6.143,6.9.509,2.879,1.754,3.158,2.695,2.788.92-.23.526-1.048.093-1.721-.879-1.222-.083-3.519,2.189-4.015,2.245-.366,4.05.624,4.56,3.495.545,2.742-1.546,5.031-3.994,5.649-2.716.546-6.382-1.152-7.233-5.709-.9-4.414,2.753-8.533,7.3-9.546,4.373-.9,12.343,2.2,14.836,14.981Z"/><path class="c" d="M367.957,109.934c-1.928-8.163-3.863-20.231,1.424-27.679,3.758-5.3,14.718-6.9,16.229,1.9-11.085.992-19.09,6.045-18.776,18.356Z"/><path class="c" d="M364.215,88.56c-1.5-10.223.988-21.822,12.476-26.409,7.816-3.118,18.937,2.048,17.522,11.33a7.605,7.605,0,0,1-7.85,6.234c4.351-8.075-1.19-15.924-8.776-14.531-14.638,2.677-13.205,20.066-12.337,30.1Z"/><path class="c" d="M386.661,166.255c-7.539-3.561-18.866-7.923-27.176-4.216-5.9,2.633-9.686,13.128-1.445,16.409,3.217-10.744,9.748-17.619,21.639-14.81Z"/><path class="c" d="M370.346,154.1c-8.123-6.3-19.387-9.754-28.951-1.874-6.511,5.364-7.453,17.672,1.281,20.949a7.57,7.57,0,0,0,9.222-3.876c-9.116-.1-13.217-8.809-8.314-14.807,9.448-11.585,23.814-1.854,32.083,3.8Z"/><path class="c" d="M416.1,149.746c-6.529,1.887-16.211,3.921-22.425-.148-4.421-2.891-6.121-11.836.938-13.405,1.215,9.069,5.591,15.463,15.527,14.75Z"/><path class="c" d="M347.062,112.4a1.426,1.426,0,1,0,1.33-1.527A1.429,1.429,0,0,0,347.062,112.4Z"/><path class="c" d="M341.541,108.586a1.425,1.425,0,1,0,1.329-1.525A1.429,1.429,0,0,0,341.541,108.586Z"/><path class="c" d="M335.435,107.426a1.248,1.248,0,1,0,1.166-1.337A1.25,1.25,0,0,0,335.435,107.426Z"/><path class="c" d="M330.229,107.672a1.247,1.247,0,1,0,1.165-1.333A1.251,1.251,0,0,0,330.229,107.672Z"/><path class="c" d="M323.791,109.189a1.249,1.249,0,1,0,1.166-1.337A1.253,1.253,0,0,0,323.791,109.189Z"/><path class="c" d="M318.885,111.452a1.011,1.011,0,0,0,1.367.435,1.029,1.029,0,0,0,.431-1.38,1.008,1.008,0,0,0-1.369-.433A1.026,1.026,0,0,0,318.885,111.452Z"/><path class="c" d="M314.593,114.707a1.013,1.013,0,0,0,1.368.434,1.023,1.023,0,0,0,.43-1.378,1.01,1.01,0,0,0-1.367-.435A1.028,1.028,0,0,0,314.593,114.707Z"/><path class="c" d="M311.541,118.613a1.008,1.008,0,0,0,1.436-.02,1.029,1.029,0,0,0-.02-1.445,1.012,1.012,0,0,0-1.434.019A1.03,1.03,0,0,0,311.541,118.613Z"/><path class="c" d="M309.1,123.813a1.007,1.007,0,0,0,1.414-.234,1.029,1.029,0,0,0-.236-1.427,1.009,1.009,0,0,0-1.414.237A1.023,1.023,0,0,0,309.1,123.813Z"/><path class="c" d="M308,130.4a1.021,1.021,0,1,0-.74-1.238A1.024,1.024,0,0,0,308,130.4Z"/><path class="c" d="M307.578,135.792a1.021,1.021,0,1,0-.739-1.238A1.016,1.016,0,0,0,307.578,135.792Z"/><path class="e" d="M488.451,135.94c-28.456.252-48.1-17.431-36.485-34.273,7.214-10.419,17.942-8.872,23.675-4.883,5.679,4.038,7.834,13.2,3.882,18.987-4.009,5.724-11.221,6.963-14.9,4.379-6.6-4.635-3.943-10.953-.549-11.131,1.669-.172.973,1.3.549,1.948s-.146,2.664,1.963,4.118c2.057,1.4,4.9.025,6.242-1.885,1.331-2.014.614-5.543-2.093-7.482-2.7-1.831-7.867-.606-10.6,3.379-2.777,4.031-.7,8.908,3.839,12.029,4.495,3.182,12.19,1.78,16.624-4.6,4.381-6.433,2.006-16.576-4.269-21-6.22-4.361-13.653-3.778-14.78-3.282s-2.266.014-1.088-1.407c4.227-5.291,3.7-11.429,1.058-13.2-2.542-1.781-6.474-1.376-7.7.318-1.232,1.8-1.005,3.536.076,4.287a2.286,2.286,0,0,0,3.284-.289,1.933,1.933,0,0,0-.34-2.824c-.865-.536-.708-1.462.747-1.523,1.508-.118,5.4,1.7,4.556,5.4-.839,3.807-3.89,7.574-7.91,11.346-4.072,3.719-12.2,13.976-6.734,27.741,5.467,13.874,21.769,17.59,29.29,14.613C476.9,136.057,488.185,136.432,488.451,135.94Z"/><path class="e" d="M637.565,125.445c-12.633-18-29.334-20.674-48.851-15.35-16.892,4.606-47.589,24.782-61.365,6.776-5.565-7.274-3.95-20.87,4.816-26.01,3.861-2.265,10.159-3.179,14.021-.512A7.727,7.727,0,0,1,549.45,96.1c.23,1.826-1.156,4.114-.5,5.85.965,2.562,3.571,2.344,4.715-.636,1.267-3.317-.18-7.845-2.553-10.248-5.022-5.087-15.211-4.774-20.72-.794-15.062,10.875-8.7,33.947,7.878,38.125,19.5,4.913,39.853-7.908,57.361-13.965,21.069-7.292,42.382,3.221,43.436,28.5-4.157-23.609-24.693-28.724-34.354-26.575-11.177,2.679-20.011,12.978-17.627,23.823,2.308,11.19,11.394,15.233,18.072,13.76,5.994-1.608,11.063-7.344,9.6-14.068-1.383-7.071-5.856-9.436-11.37-8.434-5.584,1.337-7.457,7.018-5.231,9.98,1.082,1.648,2.094,3.646-.164,4.248-2.314.948-5.372.313-6.752-6.758-1.795-6.8,4.222-18.57,14.376-19.945,28.666-3.885,30.706,33.183,30.673,33.255,0,0,3.538.422,4.69-.041C644.421,140.781,641.935,131.669,637.565,125.445Z"/><path class="c" d="M596.866,103.728c-10.789,1.25-20.269,3.835-28.832-1.427-11.668-7.173-10.919-26.654.646-33.892,10.827-6.775,26.317,3.042,23.847,16.62-.9,4.942-5.871,10.069-11.371,8.874-9.392-2.034-5.328-15.7,1.48-12.118l.26-.319c-7.717-3.921-11.666,10.891-1.469,13.1,5.969,1.292,11.19-4.181,12.166-9.548C596.275,70.279,580.941,60.9,568.848,67.3c-17.162,9.082-13.9,35.81,4.6,40.285,9.358,2.265,17.369-1.508,26.62-2.023,9.879-.551,21.849,2.326,29.548,8.691,6.37,5.266,11.425,10.877,14.832,22.264-1.52-16.325-13.718-28.175-28.323-32.056C610.735,103.025,603.029,103.016,596.866,103.728Z"/><path class="c" d="M579.327,126.124c-16.9,7.632-36.484,16.888-53.188,4.516-14.026-10.394-14.436-29.736-1.2-41.022l1.785-1.02c-13.232,11.286-14.054,30.193-.028,40.584,16.7,12.376,36.292,3.118,53.189-4.517Z"/><path class="e" d="M559.661,122.488a4.521,4.521,0,0,1-.7-1.225c-8.778,3.964-15.641.18-17.065-3.433-1.52-3.718-.376-7.683,2.182-8.615,2.548-1.126,3.43-.274,3.639.681.309.86-.549.98-1.31.991-1.434-.053-2.825,1.809-2.008,3.9.908,2,2.654,2.921,5.194,1.8,2.458-1.025,3.153-3.923,2.334-6.22-1.014-2.472-4.309-4.513-8.366-2.766-3.967,1.628-5.276,6.76-3.65,10.953,1.621,3.993,8.319,8.744,19.748,3.936Z"/><path class="c" d="M632.5,111.794c-6.83-4.159-16.313-10.934-17.813-19.584-1.065-6.15,5.215-14.781,12.2-9.909-6.777,8.311-8.731,17.225-.172,25.28Z"/><path class="c" d="M613.477,103.961c-9.312-3.169-18.046-10.377-16.913-22.262.77-8.087,9.994-15.4,17.236-10.133a7.371,7.371,0,0,1,1.853,9.474c-4.939-7.267-14-5.925-16.131,1.21-4.124,13.768,11.224,20.121,20.1,23.755Z"/><path class="c" d="M570.17,108.291a1.364,1.364,0,0,1,1.868.5,1.386,1.386,0,0,1-.5,1.884,1.362,1.362,0,0,1-1.869-.5A1.382,1.382,0,0,1,570.17,108.291Z"/><path class="c" d="M564.215,105.885a1.362,1.362,0,0,1,1.869.5,1.383,1.383,0,0,1-.5,1.884,1.36,1.36,0,0,1-1.868-.5A1.386,1.386,0,0,1,564.215,105.885Z"/><path class="c" d="M560.043,101.6a1.19,1.19,0,0,1,1.634.436,1.213,1.213,0,0,1-.434,1.65,1.193,1.193,0,0,1-1.635-.439A1.21,1.21,0,0,1,560.043,101.6Z"/><path class="c" d="M557.466,97.285a1.187,1.187,0,0,1,1.633.439,1.21,1.21,0,0,1-.434,1.647,1.186,1.186,0,0,1-1.634-.438A1.21,1.21,0,0,1,557.466,97.285Z"/><path class="c" d="M555.232,91.308a1.191,1.191,0,0,1,1.636.439,1.213,1.213,0,0,1-.435,1.648,1.193,1.193,0,0,1-1.636-.44A1.213,1.213,0,0,1,555.232,91.308Z"/><path class="c" d="M554.405,86.16a.98.98,0,1,1-.86,1.081A.975.975,0,0,1,554.405,86.16Z"/><path class="c" d="M554.691,80.978a.979.979,0,1,1-.861,1.081A.975.975,0,0,1,554.691,80.978Z"/><path class="c" d="M556.151,76.443A.98.98,0,1,1,555,77.2.98.98,0,0,1,556.151,76.443Z"/><path class="c" d="M558.964,71.713a.98.98,0,0,1,.566,1.261.967.967,0,0,1-1.252.57.98.98,0,0,1-.567-1.261A.969.969,0,0,1,558.964,71.713Z"/><path class="c" d="M563.577,67.318a.988.988,0,0,1,.065,1.385.966.966,0,0,1-1.372.065.986.986,0,0,1-.067-1.384A.967.967,0,0,1,563.577,67.318Z"/><path class="c" d="M584.188,80.521c-35.517-12.859-70.078,18-104.819-2.4a44.673,44.673,0,0,1-14.5-13.646,69.824,69.824,0,0,1-7.77-16.766l.131,1.337a69.657,69.657,0,0,0,7.756,16.735A44.531,44.531,0,0,0,479.46,79.4c34.679,20.373,70.29-11.007,105.741,1.826Z"/><path class="c" d="M479.87,54.265c-2.109,13.32,6.558,29.164,19.544,33.888,11.488,4.176,20.109,3.5,29.843-.263,12.746-4.92,22.409-8.32,36.082-9.727,10.094-1.04,30.6,1.045,36.351,17.546l-.028.927c-5.752-16.5-26.258-18.587-36.355-17.546-13.67,1.405-23.335,4.808-36.082,9.73-9.73,3.755-18.349,4.436-29.839.259C486.4,84.356,477.259,68.961,479.368,55.64Z"/><path class="c" d="M479.4,62.137c-1.524-6.417-.577-13.928,6.472-17.488,4.8-2.427,12.157.239,11.771,6.217a4.858,4.858,0,0,1-4.649,4.4c2.319-5.376-1.638-10.054-6.384-8.748-9.162,2.532-7.286,13.506-6.182,19.839Z"/><path class="c" d="M555.319,74.311c-7.55,2.61-18.791,5.586-26.33,1.188-5.36-3.127-7.889-13.522.3-15.789,1.966,10.574,7.486,17.808,19.108,16.366Z"/><path class="c" d="M513.9,94.741a1.772,1.772,0,0,1,2.331-.955,1.8,1.8,0,0,1,.946,2.35,1.772,1.772,0,0,1-2.331.953A1.8,1.8,0,0,1,513.9,94.741Z"/><path class="c" d="M506.6,94.6a1.772,1.772,0,0,1,2.33-.954,1.8,1.8,0,0,1,.945,2.349,1.77,1.77,0,0,1-2.33.953A1.8,1.8,0,0,1,506.6,94.6Z"/><path class="c" d="M499.776,93.911a1.551,1.551,0,0,1,2.039-.834,1.576,1.576,0,0,1,.828,2.056,1.547,1.547,0,0,1-2.039.832A1.571,1.571,0,0,1,499.776,93.911Z"/><path class="c" d="M492.91,90.983a1.555,1.555,0,0,1,2.041-.832,1.573,1.573,0,0,1,.827,2.055,1.553,1.553,0,0,1-2.039.835A1.576,1.576,0,0,1,492.91,90.983Z"/><path class="c" d="M485.949,86.534a1.553,1.553,0,0,1,2.04-.834,1.574,1.574,0,0,1,.827,2.056,1.549,1.549,0,0,1-2.038.832A1.571,1.571,0,0,1,485.949,86.534Z"/><path class="c" d="M481.092,81.839a1.26,1.26,0,0,1,1.789.052,1.283,1.283,0,0,1-.055,1.8,1.258,1.258,0,0,1-1.788-.053A1.283,1.283,0,0,1,481.092,81.839Z"/><path class="c" d="M477.366,76.226a1.258,1.258,0,0,1,1.788.055,1.28,1.28,0,0,1-.055,1.8,1.253,1.253,0,0,1-1.787-.054A1.283,1.283,0,0,1,477.366,76.226Z"/><path class="c" d="M474.529,69.886a1.262,1.262,0,0,1,1.681.617,1.278,1.278,0,0,1-.61,1.693,1.261,1.261,0,0,1-1.681-.613A1.283,1.283,0,0,1,474.529,69.886Z"/><path class="c" d="M472.728,63.385A1.26,1.26,0,0,1,474.41,64a1.28,1.28,0,0,1-.61,1.694,1.258,1.258,0,0,1-1.682-.612A1.279,1.279,0,0,1,472.728,63.385Z"/><path class="c" d="M471.661,55.631A1.275,1.275,0,1,1,470.5,57,1.268,1.268,0,0,1,471.661,55.631Z"/><path class="c" d="M472.236,48.9a1.274,1.274,0,1,1-1.161,1.371A1.271,1.271,0,0,1,472.236,48.9Z"/><path class="e" d="M431.858,37.664a4.815,4.815,0,0,0,1.523.369c-1.477,10.678,4.654,16.9,8.929,17.3,4.4.484,8.255-1.983,8.443-5.019.4-3.092-.77-3.777-1.847-3.709-1.007-.065-.867.9-.649,1.724.511,1.523-1.03,3.589-3.5,3.368-2.4-.354-3.912-1.943-3.514-5.034.317-2.961,3.177-4.611,5.853-4.441,2.939.322,6.116,3.235,5.54,8.146-.5,4.777-5.527,7.775-10.473,7.328-4.74-.505-11.841-6.242-10.3-20.036Z"/><path class="e" d="M632.053,195.093c-9.719,6.628-15.54,21.918-16.488,32.8-.916,10.546,4.362,17.587,7.586,21.194,2.677,2.985,4.536,7.561-1.182,8.978-9.97,2.47-11.171-21.942-10.826-27.181C612.073,216.66,620.54,202.944,632.053,195.093Z"/><path class="e" d="M615.765,152.716c-7.555,8.517-22.828,12.144-33.282,11.638-10.128-.487-16.126-6.5-19.13-10.078-2.486-2.971-6.588-5.364-8.676-.031-3.646,9.3,19.373,13.64,24.393,13.991C592.7,169.186,606.814,162.8,615.765,152.716Z"/><path class="e" d="M593.763,250.607c.4-2.058.9-3.911,1.008-5.045,1.451-14.8,10.525-28.89,21.944-38-9.9,7.9-43.729,33.963-33.965,48.977C586.906,262.937,592.682,256.108,593.763,250.607Z"/><path class="e" d="M605.253,232.906c-4.223,7.355-5.228,18.619-3.375,26.748.879,3.864,5.63,9.7,10.025,6.677,5.4-3.727-1.54-11.169-2.809-15.127-1.863-5.818-3.487-13.917-1.77-21.911C607.324,229.293,605.257,232.9,605.253,232.906Z"/><path class="e" d="M512.613,127.021c-6.2-1.96-11.9-7.689-14.2-13.106-1.094-2.575-.363-8.182,4.044-8.7,5.427-.639,3.872,6.943,4.737,9.765,1.277,4.148,3.735,9.437,8.473,13Z"/><path class="e" d="M401.1,52.578c-.473,8.195,3.51,18.355,8.61,24.556,2.425,2.946,9.041,5.9,11.527,1.368,3.057-5.582-6.14-8.959-8.939-11.817-4.118-4.206-9.006-10.482-10.969-18.129C401.329,48.556,401.1,52.569,401.1,52.578Z"/><path class="e" d="M411.57,52.868C422.124,57.039,430.822,70.2,434,80.253c3.081,9.742-.41,17.506-2.693,21.594-1.891,3.384-2.683,8.094,3,8.209,9.919.2,5.916-23.062,4.488-27.928C434.933,68.925,424.071,57.808,411.57,52.868Z"/><path class="e" d="M330.156,186.416c-3.316-2.915-5.7-8.307-6.149-12.637-.211-2.058,1.158-5.751,3.834-5,3.293.921,1.111,5.778,1.148,7.95a22.693,22.693,0,0,0,2.8,11.124S330.16,186.421,330.156,186.416Z"/><path class="c" d="M332.01,211.666a1.568,1.568,0,1,1-1.934,1.055A1.552,1.552,0,0,1,332.01,211.666Z"/><path class="c" d="M334.146,204.465a1.574,1.574,0,0,1,1.043,1.955,1.555,1.555,0,0,1-1.935,1.054,1.572,1.572,0,0,1-1.046-1.952A1.555,1.555,0,0,1,334.146,204.465Z"/><path class="c" d="M337.77,197a1.572,1.572,0,0,1,1.046,1.953A1.556,1.556,0,1,1,337.77,197Z"/><path class="c" d="M341.868,191.621a1.286,1.286,0,0,1,.144,1.8,1.258,1.258,0,0,1-1.783.142,1.283,1.283,0,0,1-.143-1.8A1.259,1.259,0,0,1,341.868,191.621Z"/><path class="c" d="M346.994,187.274a1.283,1.283,0,0,1,.142,1.8,1.257,1.257,0,0,1-1.783.143,1.28,1.28,0,0,1-.142-1.8A1.258,1.258,0,0,1,346.994,187.274Z"/><path class="c" d="M352.934,183.736a1.284,1.284,0,0,1-.424,1.753,1.257,1.257,0,0,1-1.736-.427,1.28,1.28,0,0,1,.421-1.751A1.261,1.261,0,0,1,352.934,183.736Z"/><path class="c" d="M359.147,181.221a1.28,1.28,0,0,1-.42,1.752,1.26,1.26,0,0,1-1.737-.426,1.279,1.279,0,0,1,.42-1.752A1.257,1.257,0,0,1,359.147,181.221Z"/><path class="c" d="M366.674,179.3a1.264,1.264,0,1,1-1.479-1.013A1.276,1.276,0,0,1,366.674,179.3Z"/><path class="c" d="M373.371,179.143a1.265,1.265,0,1,1-1.479-1.014A1.277,1.277,0,0,1,373.371,179.143Z"/><path class="c" d="M394.3,285.835a1.773,1.773,0,1,1-2.054,1.414A1.776,1.776,0,0,1,394.3,285.835Z"/><path class="c" d="M397.519,277.012a1.773,1.773,0,1,1-2.056,1.414A1.775,1.775,0,0,1,397.519,277.012Z"/><path class="c" d="M402.271,268.6a1.784,1.784,0,0,1,.689,2.412,1.75,1.75,0,0,1-2.39.694,1.781,1.781,0,0,1-.692-2.409A1.757,1.757,0,0,1,402.271,268.6Z"/><path class="c" d="M408.053,261.234a1.782,1.782,0,0,1,.694,2.409,1.754,1.754,0,0,1-2.391.7,1.778,1.778,0,0,1-.693-2.409A1.751,1.751,0,0,1,408.053,261.234Z"/><path class="c" d="M415.832,253.673a1.786,1.786,0,0,1-.189,2.5,1.752,1.752,0,0,1-2.483-.195,1.789,1.789,0,0,1,.19-2.5A1.754,1.754,0,0,1,415.832,253.673Z"/><path class="c" d="M423.813,248.815a1.79,1.79,0,0,1-.192,2.5,1.754,1.754,0,0,1-2.481-.194,1.783,1.783,0,0,1,.192-2.5A1.749,1.749,0,0,1,423.813,248.815Z"/><path class="c" d="M867.532,236.392c1.639.12,2.034-3.559-1.624-2.521a4.6,4.6,0,0,0-3.151,4.232c-.389,5.1,4.6,8.248,9.114,9.174,6.506,1.321,12.872-1.569,16.834-6.942,4.909-6.632,4.944-13.576,1.323-20.756-4.221-8.4-13.021-12.7-21.974-12.64A61.646,61.646,0,0,0,844.4,211.97c-7.876,3.338-4.586,2.352,4.369-.032,6.857-1.821,17.943-2.158,24.067,2.3,6.584,4.811,1.7,11.36,3.83,16.162,1.248,2.827,4.716,6.69,4.257,9.986s-5.164,5.714-8.745,5.642a10.379,10.379,0,0,1-8.184-5.31,4.131,4.131,0,0,1,.693-5C866.323,234.32,866.144,236.294,867.532,236.392Z"/><path class="c" d="M935.459,241.378c9.059-8.467,10.994-18.748,7.585-30.392-3.978-13.6-16.14-22.26-29.287-25.269-10.825-2.481-18.526-1.334-29.267,1.029-8.6,1.9-53.16,21.951-57.917,23.885a1.7,1.7,0,0,0-.808,1.248c.017-.057,13.574-5.293,19.108-6.922,5.148-1.524,10.933-3.581,16.107-5.012,8.658-2.387,17.381-4.887,26.231-6.458,8.977-1.592,23.964-3.436,31.813,4.863,8.453,8.926-.563,17.285,1.277,24.985,1.1,4.526,5.188,11.212,3.6,15.956-1.6,4.78-9.2,7.051-14.484,5.946-4.8-1.01-9.541-5.875-10.682-10.12-.737-2.72-.067-5.825,2.384-7.224,2.814-1.605,1.995,1.262,4.047,1.806,2.4.623,3.964-4.727-1.741-4.2a6.881,6.881,0,0,0-5.8,5.407c-1.966,7.442,4.586,13.483,11.01,16.092C917.9,250.761,928.123,248.237,935.459,241.378Zm-1.176-6.549a27.738,27.738,0,0,0,3.381-20.946c-1.547-7.015-5.789-12.451-13.029-17.784-4.47-3.292-12.22-5.733-22.937-5.869A47.214,47.214,0,0,1,918.68,194c7.248,3.268,18.8,16.759,15.066,29.769l-.083.145C935.4,208.825,925.5,198.365,918.7,195.2a50.392,50.392,0,0,0-24.842-4.69,125.335,125.335,0,0,0-29.827,6.6l.1-.1a130.466,130.466,0,0,1,18.375-5.179c.448-.1.9-.181,1.348-.27,1.04-.2,2.053-.376,3.06-.534l.06-.013c17.383-4.558,32.388-.1,38.841,4.642,7.413,5.464,10.913,11.326,12.592,18.534a27.136,27.136,0,0,1,.205,9.287,28.092,28.092,0,0,1-1.559,6.055C936.531,230.926,934.074,235.83,934.283,234.829Zm3.6-.181c5.168-9.016,3.113-20.325,2.045-23.362-2.725-7.773-8.126-13.468-17.035-18.645-10.5-6.09-31.561-9.092-64.876,6.171-.4.187-.79.367-1.191.564l-.265.1c.49-.231.97-.445,1.456-.665,33.261-15.924,55.749-12.728,66.481-6.512,9.129,5.291,14.212,10.968,17.02,18.971,1.654,4.7,2.491,15.255-2.287,23.582-3.677,6.437-10.969,10.68-19.687,12.317l-.085-.028C927.893,245.567,934.349,240.843,937.884,234.648Z"/><path class="c" d="M834.225,243.448c22.613,9.809,55.835,37.766,57.142,115.681l-.564.133a231.015,231.015,0,0,0-3.9-38.314c-2.573-11.376-13.263-48.66-44.223-41.237a34.052,34.052,0,0,1-6.358,1c-7.87.387-15.7-2.873-16.956-13.6-.344-2.983-.36-4.677-2.56-1.627-2.108,2.937-6.508,4.478-9.962,4.725-3.592.239-9.059-2.121-12.509-1.079-3.242.971-3.948,6.213-1,6.512,2.259.23,4.982,1.3,4.238,4.458s-4.756,3.335-6.746,1.407c-2.156-2.1-2.253-6.693-1.742-9.7a17.493,17.493,0,0,1,4.346-9.217c5.986-7.474,16.525-11.068,25.788-10.786,13.808.593,35.475,13.157,50.672,30.921-1.2-.878-2.578-1.862-4.039-2.883-4.231-4.148-22.463-17.043-27.062-19.129-8.643-3.909-15.037-5.645-22.8-6.179-6.166-.424-22.362,3.531-25.848,15.834l.2.061c4.205-12.534,19.62-15.268,25.491-14.868a59.25,59.25,0,0,1,22.236,5.813c4.113,1.86,19.858,12.209,25.908,17.153-6.342-4.4-13.679-9.221-16.31-10.564a95.372,95.372,0,0,0-21.532-8.377c-5.791-1.448-20.847-1.973-23.736,5.373l.187.079c3.558-7.353,17.92-6.194,23.429-4.816a91.937,91.937,0,0,1,21.012,8.036c2.66,1.366,10.519,6.333,17.1,10.75-5.615-3.264-15.581-8.611-18.461-9.818a94.365,94.365,0,0,0-17.406-5.69c-4.6-1.006-16.277-1.508-17.838,3.24l.149.049c2.081-4.746,13.275-3.833,17.658-2.875a90.318,90.318,0,0,1,16.955,5.46c3.183,1.326,15.5,7.717,20.481,10.671.036.029.074.045.1.07h0c1.727,1.172,3.308,2.279,4.627,3.226A77.315,77.315,0,0,1,881.772,301.3c-12.045-35.577-33.521-48.072-48.873-54.725a53.869,53.869,0,0,0-40.576-.135c-13.076,5.534-23.147,15.48-27.632,27.289a34.222,34.222,0,0,0-1.885,16.257,27.673,27.673,0,0,0,2.073,7.807c1.028,2.315,2.336,4.612,3.586,6.808a12.787,12.787,0,0,0,2.636,3.359c2.553,2.247,6.087,5.131,10.1,4.877,8.941-.56,10.24-6.911,15.794-8.39,3.265-.866,8.955-.542,11.425-3.215,2.486-2.691,1.269-8.4-1.293-11.442a11.451,11.451,0,0,0-10.193-3.407,4.5,4.5,0,0,0-3.756,4.066c-.04,2.379,1.5.842,2.561,1.979,1.238,1.341-1.614,4.213-3.276.337a5.054,5.054,0,0,1,1.408-5.639c4.046-3.859,10.2-1.716,14.11,1.535,5.642,4.693,7.611,12.192,5.818,19.333-2.624,10.4-12.822,16.8-23.286,15.866-9.72-.866-18.5-7.964-23.588-16.248a39.278,39.278,0,0,1-3.651-34.223c4.814-12.662,15.554-23.308,29.468-29.2C806.628,238.321,821.747,238.048,834.225,243.448Z"/><path class="e" d="M879.1,161.367c22.8-.605,34.789-13.656,41.531-33.8,5.837-17.439,6.286-55.976,29.761-57.576,9.483-.644,20.239,8.649,19.577,19.295-.293,4.69-3.156,10.725-7.691,12.554a7.925,7.925,0,0,1-6.835-.481c-1.7-.856-2.871-3.4-4.744-3.831-2.762-.639-4.088,1.766-2.188,4.493,2.12,3.031,6.853,4.393,10.295,3.712,7.287-1.443,12.926-10.529,12.7-17.654-.618-19.474-24.151-27.292-37.358-15.222-15.532,14.2-16.31,39.426-21.253,58.243-5.947,22.648-27.35,35.182-49.7,21.443,22.715,10.059,39.027-4.927,42.778-14.62,4.175-11.325.441-25.018-10.268-29.222-10.962-4.475-19.706,1.124-22.314,7.817-2.1,6.172-.1,13.929,6.529,16.552,6.882,2.9,11.511.356,13.846-5.048,2.089-5.657-1.708-10.588-5.544-10.361-2.049-.01-4.353-.285-3.562-2.608.528-2.571,2.845-4.876,9.728-1.98,6.892,2.376,12.734,14.107,8.815,24.134-3.466,9.279-20.593,24.658-42.49,10.561,6.9,1.341,11.077-3.457,13.177-7.959.657-1.536.566-1.983-.476-1.888-.956.111-1.187-.013-1.746.234-.566.345-.555-.256-.6-1.036-.326-5.568-3.138-9.979-10.885-8.534-1.576.263-1.968,1.663-.054,1.451,2.01-.281,7.465,2.408,6.647,7.616-.808,5.146-4.918,7.394-9.818,7.281a2.146,2.146,0,0,1-.14-.2s-2.414,2.849-2.686,4.126C861.936,158.465,871.216,161.578,879.1,161.367Zm-21.8-16.009c-.04-.029-.079-.055-.113-.082a1,1,0,0,1,.374.555c-.162-.236-.328-.478-.495-.724A1.884,1.884,0,0,1,857.3,145.358Z"/><path class="c" d="M921.38,138.383c5.183-10.154,8.458-19.945,17.95-24.379,12.934-6.04,29.255,5.913,28.773,20.22-.452,13.4-17.878,21.241-28.122,11.207-3.731-3.652-5.257-10.971-1.038-15.084,7.194-7.032,16.59,4.446,9.563,8.32l.125.413c7.847-4.474-2.6-16.512-10.418-8.885-4.573,4.47-2.9,12.207,1.154,16.173,11.123,10.9,28.085,2.93,29.595-11.353,2.144-20.27-22.737-32.911-37.314-19.336-7.377,6.865-8.776,16.059-13.7,24.444-5.256,8.954-14.673,17.751-24.613,20.79-8.221,2.513-15.98,3.681-27.748.055,14.924,8.139,32.187,4.346,43.993-6.172C913.944,150.915,918.42,144.184,921.38,138.383Z"/><path class="c" d="M898.62,145.646a10.593,10.593,0,0,0,4.848-4.811,31.339,31.339,0,0,0,4.111-14.2,39.431,39.431,0,0,0-3.922-16.78c-7.742-15.5-27.527-24.932-43.147-13.437l.8-.726c15.624-11.494,35.408-2.062,43.147,13.435A39.429,39.429,0,0,1,908.38,125.9a32.624,32.624,0,0,1-3.65,14.654c-1.168,2.208-3.039,3.18-5.311,4.357Z"/><path class="c" d="M909.346,115.047a1.445,1.445,0,0,0-.356,2,1.417,1.417,0,0,0,1.984.358,1.441,1.441,0,0,0,.358-2A1.417,1.417,0,0,0,909.346,115.047Z"/><path class="c" d="M908.028,109.3a1.442,1.442,0,0,0-.355,2,1.415,1.415,0,0,0,1.983.36,1.444,1.444,0,0,0,.355-2A1.416,1.416,0,0,0,908.028,109.3Z"/><path class="c" d="M906.365,104.011a1.267,1.267,0,0,0-.311,1.752,1.243,1.243,0,0,0,1.737.314,1.269,1.269,0,0,0,.311-1.751A1.244,1.244,0,0,0,906.365,104.011Z"/><path class="c" d="M913.322,113.594c3.233-19.2,6.633-41.689,26.962-49.115,17.072-6.235,33.945,4.625,35.979,22.739L976.1,89.37c-2.033-18.113-17.817-29.8-34.888-23.562-20.329,7.427-23.727,29.918-26.961,49.118Z"/><path class="c" d="M902.952,99.066a1.265,1.265,0,0,0-.312,1.751,1.241,1.241,0,0,0,1.737.313,1.264,1.264,0,0,0,.311-1.751A1.241,1.241,0,0,0,902.952,99.066Z"/><path class="c" d="M898.338,94.3a1.265,1.265,0,0,0-.315,1.749,1.241,1.241,0,0,0,1.739.314,1.262,1.262,0,0,0,.31-1.75A1.238,1.238,0,0,0,898.338,94.3Z"/><path class="c" d="M893.88,91.231a1.027,1.027,0,0,0,.335,1.4,1.01,1.01,0,0,0,1.393-.34,1.023,1.023,0,0,0-.339-1.4A1.006,1.006,0,0,0,893.88,91.231Z"/><path class="c" d="M888.9,89.214a1.028,1.028,0,0,0,.341,1.406,1.012,1.012,0,0,0,1.392-.341,1.031,1.031,0,0,0-.34-1.406A1.008,1.008,0,0,0,888.9,89.214Z"/><path class="c" d="M883.492,88.017a1.028,1.028,0,0,0,.759,1.231,1.011,1.011,0,0,0,1.215-.765,1.014,1.014,0,1,0-1.974-.466Z"/><path class="c" d="M878.134,87.67a1.024,1.024,0,0,0,.756,1.229,1.022,1.022,0,1,0-.756-1.229Z"/><path class="c" d="M871.927,88.108a1.013,1.013,0,1,0,.873-1.141A1.014,1.014,0,0,0,871.927,88.108Z"/><path class="c" d="M866.785,89.677a1.014,1.014,0,1,0,.875-1.144A1.019,1.019,0,0,0,866.785,89.677Z"/><path class="e" d="M926.823,94.976a4.606,4.606,0,0,1,1.46.105c1.682-9.974,8.915-13.78,12.848-12.928,4.077.824,6.826,4.124,6.143,6.9-.51,2.879-1.754,3.158-2.7,2.788-.92-.23-.526-1.048-.093-1.721.879-1.222.083-3.519-2.189-4.015-2.245-.366-4.05.624-4.56,3.495-.545,2.742,1.546,5.031,3.994,5.649,2.716.546,6.382-1.152,7.233-5.709.9-4.414-2.753-8.533-7.3-9.546-4.374-.9-12.344,2.2-14.836,14.981Z"/><path class="c" d="M912.043,109.934c1.928-8.163,3.863-20.231-1.424-27.679-3.758-5.3-14.718-6.9-16.229,1.9,11.085.992,19.09,6.045,18.776,18.356Z"/><path class="c" d="M915.785,88.56c1.5-10.223-.988-21.822-12.476-26.409-7.816-3.118-18.937,2.048-17.522,11.33a7.605,7.605,0,0,0,7.85,6.234c-4.351-8.075,1.19-15.924,8.775-14.531,14.639,2.677,13.206,20.066,12.337,30.1Z"/><path class="c" d="M893.339,166.255c7.539-3.561,18.866-7.923,27.175-4.216,5.905,2.633,9.687,13.128,1.446,16.409-3.218-10.744-9.748-17.619-21.639-14.81Z"/><path class="c" d="M909.654,154.1c8.123-6.3,19.387-9.754,28.951-1.874,6.511,5.364,7.453,17.672-1.281,20.949a7.57,7.57,0,0,1-9.222-3.876c9.116-.1,13.217-8.809,8.314-14.807-9.448-11.585-23.814-1.854-32.083,3.8Z"/><path class="c" d="M863.9,149.746c6.529,1.887,16.211,3.921,22.425-.148,4.42-2.891,6.121-11.836-.938-13.405-1.215,9.069-5.591,15.463-15.527,14.75Z"/><path class="c" d="M932.938,112.4a1.426,1.426,0,1,1-1.33-1.527A1.429,1.429,0,0,1,932.938,112.4Z"/><path class="c" d="M938.459,108.586a1.425,1.425,0,1,1-1.329-1.525A1.429,1.429,0,0,1,938.459,108.586Z"/><path class="c" d="M944.565,107.426a1.248,1.248,0,1,1-1.166-1.337A1.25,1.25,0,0,1,944.565,107.426Z"/><path class="c" d="M949.771,107.672a1.247,1.247,0,1,1-1.165-1.333A1.252,1.252,0,0,1,949.771,107.672Z"/><path class="c" d="M956.209,109.189a1.249,1.249,0,1,1-1.166-1.337A1.253,1.253,0,0,1,956.209,109.189Z"/><path class="c" d="M961.115,111.452a1.012,1.012,0,0,1-1.368.435,1.029,1.029,0,0,1-.43-1.38,1.007,1.007,0,0,1,1.368-.433A1.025,1.025,0,0,1,961.115,111.452Z"/><path class="c" d="M965.407,114.707a1.015,1.015,0,1,1-.431-1.379A1.028,1.028,0,0,1,965.407,114.707Z"/><path class="c" d="M968.459,118.613a1.008,1.008,0,0,1-1.436-.02,1.029,1.029,0,0,1,.02-1.445,1.011,1.011,0,0,1,1.433.019A1.03,1.03,0,0,1,968.459,118.613Z"/><path class="c" d="M970.9,123.813a1.007,1.007,0,0,1-1.414-.234,1.029,1.029,0,0,1,.236-1.427,1.009,1.009,0,0,1,1.414.237A1.023,1.023,0,0,1,970.9,123.813Z"/><path class="c" d="M972,130.4a1.021,1.021,0,1,1,.739-1.238A1.015,1.015,0,0,1,972,130.4Z"/><path class="c" d="M972.422,135.792a1.021,1.021,0,1,1,.739-1.238A1.016,1.016,0,0,1,972.422,135.792Z"/><path class="e" d="M791.549,135.94c28.455.252,48.1-17.431,36.485-34.273-7.214-10.419-17.943-8.872-23.675-4.883-5.679,4.038-7.834,13.2-3.882,18.987,4.009,5.724,11.221,6.963,14.9,4.379,6.6-4.635,3.944-10.953.549-11.131-1.668-.172-.972,1.3-.548,1.948s.146,2.664-1.963,4.118c-2.057,1.4-4.9.025-6.242-1.885-1.331-2.014-.614-5.543,2.093-7.482,2.7-1.831,7.866-.606,10.6,3.379,2.777,4.031.7,8.908-3.839,12.029-4.5,3.182-12.19,1.78-16.624-4.6-4.381-6.433-2.006-16.576,4.268-21,6.221-4.361,13.654-3.778,14.781-3.282s2.266.014,1.088-1.407c-4.227-5.291-3.705-11.429-1.058-13.2,2.542-1.781,6.474-1.376,7.7.318,1.232,1.8,1.005,3.536-.076,4.287a2.286,2.286,0,0,1-3.284-.289,1.933,1.933,0,0,1,.34-2.824c.865-.536.708-1.462-.747-1.523-1.508-.118-5.4,1.7-4.556,5.4.839,3.807,3.89,7.574,7.909,11.346,4.073,3.719,12.2,13.976,6.734,27.741-5.466,13.874-21.769,17.59-29.289,14.613C803.1,136.057,791.815,136.432,791.549,135.94Z"/><path class="e" d="M639.015,152.174c1.152.463,4.69.041,4.69.041-.033-.072,2.007-37.14,30.673-33.255,10.154,1.375,16.171,13.14,14.375,19.945-1.379,7.071-4.437,7.706-6.751,6.758-2.258-.6-1.246-2.6-.164-4.248,2.226-2.962.353-8.643-5.232-9.98-5.513-1-9.986,1.363-11.369,8.434-1.459,6.724,3.61,12.46,9.6,14.068,6.679,1.473,15.765-2.57,18.073-13.76,2.384-10.845-6.451-21.144-17.627-23.823-9.661-2.149-30.2,2.966-34.354,26.575,1.054-25.279,22.367-35.792,43.436-28.5,17.508,6.057,37.862,18.878,57.361,13.965,16.577-4.178,22.94-27.25,7.878-38.125-5.509-3.98-15.7-4.293-20.72.794-2.373,2.4-3.82,6.931-2.553,10.248,1.144,2.98,3.75,3.2,4.715.636.656-1.736-.729-4.024-.5-5.85a7.727,7.727,0,0,1,3.264-5.748c3.862-2.667,10.16-1.753,14.021.512,8.766,5.14,10.381,18.736,4.816,26.01-13.776,18.006-44.473-2.17-61.365-6.776-19.517-5.324-36.219-2.648-48.852,15.35C638.065,131.669,635.579,140.781,639.015,152.174Z"/><path class="c" d="M683.134,103.728c10.789,1.25,20.269,3.835,28.832-1.427,11.667-7.173,10.919-26.654-.646-33.892-10.828-6.775-26.317,3.042-23.848,16.62.9,4.942,5.872,10.069,11.372,8.874,9.392-2.034,5.328-15.7-1.48-12.118l-.26-.319c7.717-3.921,11.665,10.891,1.469,13.1-5.969,1.292-11.19-4.181-12.166-9.548C683.725,70.279,699.059,60.9,711.152,67.3c17.162,9.082,13.9,35.81-4.6,40.285-9.358,2.265-17.369-1.508-26.62-2.023-9.879-.551-21.85,2.326-29.548,8.691-6.37,5.266-11.425,10.877-14.832,22.264,1.52-16.325,13.717-28.175,28.323-32.056C669.265,103.025,676.971,103.016,683.134,103.728Z"/><path class="c" d="M700.673,126.124c16.894,7.632,36.484,16.888,53.188,4.516,14.026-10.394,14.436-29.736,1.2-41.022l-1.786-1.02c13.233,11.286,14.054,30.193.029,40.584-16.7,12.376-36.292,3.118-53.189-4.517Z"/><path class="e" d="M720.339,122.488a4.5,4.5,0,0,0,.7-1.225c8.779,3.964,15.642.18,17.066-3.433,1.52-3.718.376-7.683-2.182-8.615-2.548-1.126-3.43-.274-3.639.681-.309.86.549.98,1.31.991,1.434-.053,2.824,1.809,2.008,3.9-.909,2-2.654,2.921-5.194,1.8-2.458-1.025-3.153-3.923-2.335-6.22,1.015-2.472,4.31-4.513,8.367-2.766,3.967,1.628,5.276,6.76,3.65,10.953-1.622,3.993-8.319,8.744-19.748,3.936Z"/><path class="c" d="M647.5,111.794c6.83-4.159,16.313-10.934,17.813-19.584,1.065-6.15-5.215-14.781-12.2-9.909,6.777,8.311,8.731,17.225.172,25.28Z"/><path class="c" d="M666.523,103.961c9.312-3.169,18.046-10.377,16.913-22.262-.77-8.087-9.994-15.4-17.236-10.133a7.371,7.371,0,0,0-1.853,9.474c4.939-7.267,14-5.925,16.131,1.21,4.124,13.768-11.224,20.121-20.1,23.755Z"/><path class="c" d="M709.83,108.291a1.363,1.363,0,0,0-1.868.5,1.385,1.385,0,0,0,.5,1.884,1.362,1.362,0,0,0,1.869-.5A1.383,1.383,0,0,0,709.83,108.291Z"/><path class="c" d="M715.784,105.885a1.361,1.361,0,0,0-1.868.5,1.383,1.383,0,0,0,.5,1.884,1.361,1.361,0,0,0,1.868-.5A1.385,1.385,0,0,0,715.784,105.885Z"/><path class="c" d="M719.957,101.6a1.19,1.19,0,0,0-1.634.436,1.212,1.212,0,0,0,.434,1.65,1.194,1.194,0,0,0,1.635-.439A1.21,1.21,0,0,0,719.957,101.6Z"/><path class="c" d="M722.534,97.285a1.187,1.187,0,0,0-1.633.439,1.21,1.21,0,0,0,.434,1.647,1.186,1.186,0,0,0,1.634-.438A1.21,1.21,0,0,0,722.534,97.285Z"/><path class="c" d="M724.767,91.308a1.19,1.19,0,0,0-1.635.439,1.213,1.213,0,0,0,.435,1.648,1.193,1.193,0,0,0,1.636-.44A1.212,1.212,0,0,0,724.767,91.308Z"/><path class="c" d="M725.594,86.16a.98.98,0,1,0,.861,1.081A.975.975,0,0,0,725.594,86.16Z"/><path class="c" d="M725.309,80.978a.979.979,0,1,0,.861,1.081A.975.975,0,0,0,725.309,80.978Z"/><path class="c" d="M723.848,76.443A.98.98,0,1,0,725,77.2.979.979,0,0,0,723.848,76.443Z"/><path class="c" d="M721.036,71.713a.98.98,0,0,0-.566,1.261.966.966,0,0,0,1.252.57.98.98,0,0,0,.567-1.261A.969.969,0,0,0,721.036,71.713Z"/><path class="c" d="M716.423,67.318a.988.988,0,0,0-.065,1.385.966.966,0,0,0,1.372.065.986.986,0,0,0,.067-1.384A.967.967,0,0,0,716.423,67.318Z"/><path class="c" d="M695.812,80.521c35.517-12.859,70.078,18,104.819-2.4a44.673,44.673,0,0,0,14.5-13.646,69.862,69.862,0,0,0,7.77-16.766l-.131,1.337a69.66,69.66,0,0,1-7.757,16.735A44.518,44.518,0,0,1,800.54,79.4C765.861,99.774,730.25,68.394,694.8,81.227Z"/><path class="c" d="M800.13,54.265c2.109,13.32-6.558,29.164-19.544,33.888-11.488,4.176-20.109,3.5-29.843-.263-12.746-4.92-22.41-8.32-36.082-9.727-10.094-1.04-30.6,1.045-36.351,17.546l.027.927c5.752-16.5,26.259-18.587,36.356-17.546,13.67,1.405,23.335,4.808,36.081,9.73,9.73,3.755,18.35,4.436,29.84.259C793.6,84.356,802.74,68.961,800.631,55.64Z"/><path class="c" d="M800.595,62.137c1.524-6.417.577-13.928-6.473-17.488-4.8-2.427-12.156.239-11.77,6.217a4.857,4.857,0,0,0,4.649,4.4c-2.319-5.376,1.638-10.054,6.384-8.748,9.162,2.532,7.286,13.506,6.182,19.839Z"/><path class="c" d="M724.681,74.311c7.55,2.61,18.791,5.586,26.33,1.188,5.36-3.127,7.888-13.522-.3-15.789-1.966,10.574-7.487,17.808-19.108,16.366Z"/><path class="c" d="M766.1,94.741a1.773,1.773,0,0,0-2.332-.955,1.8,1.8,0,0,0-.945,2.35,1.772,1.772,0,0,0,2.33.953A1.8,1.8,0,0,0,766.1,94.741Z"/><path class="c" d="M773.4,94.6a1.772,1.772,0,0,0-2.33-.954,1.8,1.8,0,0,0-.945,2.349,1.77,1.77,0,0,0,2.329.953A1.8,1.8,0,0,0,773.4,94.6Z"/><path class="c" d="M780.224,93.911a1.551,1.551,0,0,0-2.039-.834,1.576,1.576,0,0,0-.828,2.056,1.547,1.547,0,0,0,2.039.832A1.571,1.571,0,0,0,780.224,93.911Z"/><path class="c" d="M787.09,90.983a1.555,1.555,0,0,0-2.042-.832,1.575,1.575,0,0,0-.827,2.055,1.555,1.555,0,0,0,2.04.835A1.576,1.576,0,0,0,787.09,90.983Z"/><path class="c" d="M794.051,86.534a1.553,1.553,0,0,0-2.04-.834,1.574,1.574,0,0,0-.827,2.056,1.549,1.549,0,0,0,2.038.832A1.571,1.571,0,0,0,794.051,86.534Z"/><path class="c" d="M798.908,81.839a1.26,1.26,0,0,0-1.789.052,1.282,1.282,0,0,0,.055,1.8,1.258,1.258,0,0,0,1.788-.053A1.283,1.283,0,0,0,798.908,81.839Z"/><path class="c" d="M802.633,76.226a1.257,1.257,0,0,0-1.787.055,1.281,1.281,0,0,0,.054,1.8,1.253,1.253,0,0,0,1.787-.054A1.281,1.281,0,0,0,802.633,76.226Z"/><path class="c" d="M805.471,69.886a1.262,1.262,0,0,0-1.681.617,1.278,1.278,0,0,0,.61,1.693,1.261,1.261,0,0,0,1.681-.613A1.283,1.283,0,0,0,805.471,69.886Z"/><path class="c" d="M807.271,63.385A1.259,1.259,0,0,0,805.59,64a1.28,1.28,0,0,0,.61,1.694,1.258,1.258,0,0,0,1.682-.612A1.279,1.279,0,0,0,807.271,63.385Z"/><path class="c" d="M808.339,55.631A1.275,1.275,0,1,0,809.5,57,1.268,1.268,0,0,0,808.339,55.631Z"/><path class="c" d="M807.764,48.9a1.274,1.274,0,1,0,1.161,1.371A1.271,1.271,0,0,0,807.764,48.9Z"/><path class="e" d="M848.142,37.664a4.815,4.815,0,0,1-1.523.369c1.477,10.678-4.654,16.9-8.929,17.3-4.405.484-8.255-1.983-8.443-5.019-.4-3.092.77-3.777,1.846-3.709,1.008-.065.868.9.65,1.724-.511,1.523,1.03,3.589,3.5,3.368,2.4-.354,3.912-1.943,3.514-5.034-.317-2.961-3.177-4.611-5.853-4.441-2.939.322-6.116,3.235-5.54,8.146.5,4.777,5.526,7.775,10.473,7.328,4.739-.505,11.841-6.242,10.3-20.036Z"/><path class="e" d="M647.947,195.093c9.718,6.628,15.54,21.918,16.488,32.8.915,10.546-4.362,17.587-7.586,21.194-2.677,2.985-4.536,7.561,1.182,8.978,9.97,2.47,11.171-21.942,10.825-27.181C667.927,216.66,659.46,202.944,647.947,195.093Z"/><path class="e" d="M664.235,152.716c7.555,8.517,22.828,12.144,33.282,11.638,10.128-.487,16.126-6.5,19.13-10.078,2.486-2.971,6.588-5.364,8.676-.031,3.646,9.3-19.373,13.64-24.393,13.991C687.3,169.186,673.186,162.8,664.235,152.716Z"/><path class="e" d="M686.237,250.607c-.4-2.058-.9-3.911-1.008-5.045-1.451-14.8-10.525-28.89-21.944-38,9.9,7.9,43.728,33.963,33.965,48.977C693.094,262.937,687.318,256.108,686.237,250.607Z"/><path class="e" d="M674.746,232.906c4.224,7.355,5.228,18.619,3.376,26.748-.88,3.864-5.631,9.7-10.025,6.677-5.4-3.727,1.54-11.169,2.808-15.127,1.864-5.818,3.488-13.917,1.771-21.911C672.676,229.293,674.743,232.9,674.746,232.906Z"/><path class="e" d="M767.387,127.021c6.2-1.96,11.9-7.689,14.2-13.106,1.094-2.575.362-8.182-4.044-8.7-5.427-.639-3.872,6.943-4.737,9.765-1.277,4.148-3.735,9.437-8.473,13Z"/><path class="e" d="M878.9,52.578c.473,8.195-3.51,18.355-8.61,24.556-2.425,2.946-9.041,5.9-11.527,1.368-3.057-5.582,6.14-8.959,8.939-11.817,4.118-4.206,9.006-10.482,10.968-18.129C878.67,48.556,878.9,52.569,878.9,52.578Z"/><path class="e" d="M868.43,52.868C857.876,57.039,849.178,70.2,846,80.253c-3.081,9.742.41,17.506,2.692,21.594,1.892,3.384,2.684,8.094-3,8.209-9.919.2-5.916-23.062-4.488-27.928C845.067,68.925,855.929,57.808,868.43,52.868Z"/><path class="e" d="M949.844,186.416c3.316-2.915,5.7-8.307,6.149-12.637.211-2.058-1.158-5.751-3.834-5-3.294.921-1.111,5.778-1.148,7.95a22.693,22.693,0,0,1-2.8,11.124S949.84,186.421,949.844,186.416Z"/><path class="c" d="M947.99,211.666a1.568,1.568,0,1,0,1.934,1.055A1.552,1.552,0,0,0,947.99,211.666Z"/><path class="c" d="M945.854,204.465a1.575,1.575,0,0,0-1.043,1.955,1.554,1.554,0,0,0,1.935,1.054,1.572,1.572,0,0,0,1.046-1.952A1.556,1.556,0,0,0,945.854,204.465Z"/><path class="c" d="M942.229,197a1.572,1.572,0,0,0-1.045,1.953A1.556,1.556,0,1,0,942.229,197Z"/><path class="c" d="M938.132,191.621a1.285,1.285,0,0,0-.144,1.8,1.257,1.257,0,0,0,1.782.142,1.283,1.283,0,0,0,.144-1.8A1.259,1.259,0,0,0,938.132,191.621Z"/><path class="c" d="M933.006,187.274a1.282,1.282,0,0,0-.142,1.8,1.257,1.257,0,0,0,1.783.143,1.28,1.28,0,0,0,.142-1.8A1.258,1.258,0,0,0,933.006,187.274Z"/><path class="c" d="M927.066,183.736a1.283,1.283,0,0,0,.424,1.753,1.257,1.257,0,0,0,1.736-.427,1.28,1.28,0,0,0-.421-1.751A1.261,1.261,0,0,0,927.066,183.736Z"/><path class="c" d="M920.853,181.221a1.28,1.28,0,0,0,.42,1.752,1.26,1.26,0,0,0,1.737-.426,1.279,1.279,0,0,0-.42-1.752A1.257,1.257,0,0,0,920.853,181.221Z"/><path class="c" d="M913.326,179.3a1.264,1.264,0,1,0,1.479-1.013A1.276,1.276,0,0,0,913.326,179.3Z"/><path class="c" d="M906.629,179.143a1.265,1.265,0,1,0,1.479-1.014A1.277,1.277,0,0,0,906.629,179.143Z"/><path class="c" d="M885.7,285.835a1.772,1.772,0,1,0,2.054,1.414A1.776,1.776,0,0,0,885.7,285.835Z"/><path class="c" d="M882.481,277.012a1.773,1.773,0,1,0,2.056,1.414A1.775,1.775,0,0,0,882.481,277.012Z"/><path class="c" d="M877.729,268.6a1.784,1.784,0,0,0-.689,2.412,1.751,1.751,0,0,0,2.39.694,1.782,1.782,0,0,0,.692-2.409A1.757,1.757,0,0,0,877.729,268.6Z"/><path class="c" d="M871.947,261.234a1.782,1.782,0,0,0-.694,2.409,1.753,1.753,0,0,0,2.39.7,1.777,1.777,0,0,0,.694-2.409A1.751,1.751,0,0,0,871.947,261.234Z"/><path class="c" d="M864.168,253.673a1.784,1.784,0,0,0,.189,2.5,1.753,1.753,0,0,0,2.483-.195,1.789,1.789,0,0,0-.19-2.5A1.754,1.754,0,0,0,864.168,253.673Z"/><path class="c" d="M856.187,248.815a1.79,1.79,0,0,0,.192,2.5,1.754,1.754,0,0,0,2.481-.194,1.783,1.783,0,0,0-.192-2.5A1.749,1.749,0,0,0,856.187,248.815Z"/><path class="c" d="M705.92,175.371c-3.726,4.406-9.1,6.653-14.57,8a43.408,43.408,0,0,1-33.987-5.948A58.95,58.95,0,0,1,643.382,164.6c-.539.722-1.086,1.435-1.627,2.158-.064.092-.127.177-.2.269a52.745,52.745,0,0,0,8.545,8.641,54.339,54.339,0,0,0,27.427,10.969,59.122,59.122,0,0,0,15.21.142c4.916-.692,9.834-2.8,14.428-4.618,9.534-3.771,17.742-9.831,27.655-12.794a41.673,41.673,0,0,1,24.966.46C766.524,172,775.5,176.19,776.57,184.09c.811,6.018-5.17,9.166-10.025,6.28-1.936-1.159-3.065-3.289-1.817-5.3,1.522-2.425,9.056-.375,8.409-4.009a1.255,1.255,0,0,1,.01-.46,14.173,14.173,0,0,0-1.635-2.024c-3.086-3.21-8.208-5.26-12.285-6.7a38.635,38.635,0,0,0-23.844-.454c-9.007,2.687-16.506,7.879-25,11.671-6.929,3.1-14.36,5.869-21.984,6.2a67.93,67.93,0,0,1-23.873-3.2,57.136,57.136,0,0,1-18.33-10.891,41.138,41.138,0,0,1-5.828-6.564,40.476,40.476,0,0,1-5.829,6.564,57.036,57.036,0,0,1-18.332,10.891,67.876,67.876,0,0,1-23.865,3.2c-7.625-.326-15.06-3.1-21.985-6.2-8.494-3.792-16-8.984-25-11.671a38.661,38.661,0,0,0-23.852.454c-4.075,1.435-9.2,3.485-12.283,6.7a14.17,14.17,0,0,0-1.634,2.024,1.115,1.115,0,0,1,.014.46c-.644,3.634,6.889,1.584,8.4,4.009,1.256,2.016.12,4.146-1.817,5.3-4.847,2.886-10.831-.262-10.018-6.28,1.068-7.9,10.046-12.093,16.782-14.258a41.65,41.65,0,0,1,24.959-.46c9.913,2.963,18.128,9.023,27.652,12.794,4.6,1.818,9.512,3.926,14.43,4.618a59.157,59.157,0,0,0,15.215-.142,54.342,54.342,0,0,0,27.43-10.969,52.427,52.427,0,0,0,8.538-8.641c-.063-.092-.127-.177-.2-.269-.534-.723-1.082-1.436-1.62-2.158a59.175,59.175,0,0,1-13.988,12.822,43.391,43.391,0,0,1-33.982,5.948c-5.463-1.351-10.845-3.6-14.569-8a20.26,20.26,0,0,1-4.6-15.668c.554-4.037,2.189-8.049,6.72-10.622a13.886,13.886,0,0,1,10.9-1.939,4.416,4.416,0,0,1-2.511,8.467c-2.63-.652-4.5-5.954-10.1-2.991-2.932,2.339-2.75,7.957-1.031,12.213a11.534,11.534,0,0,0,10.564,6.982c1.993.049,4.651-.326,6.341,1.046a5.845,5.845,0,0,1,1.832,2.363c.091.177,1.937,3.2,2.07,2.765v-.007c-1.705-8.226,7.864-13.748,14.262-8.438a.712.712,0,0,1-.492,1.209c-5.716-.291-3.7,7.179.3,8.176a13.24,13.24,0,0,0,10.48-1.224,76.419,76.419,0,0,0,17.116-14q-3.513-4.668-7.063-9.293a1.1,1.1,0,0,1-.238-.659,1.12,1.12,0,0,1,.329-1.414c.932-.692,8.368-13,10.663-15.552a1.215,1.215,0,0,1,.126-.142.412.412,0,0,1,.05-.057l.006.007c.064-.056.127-.113.2-.169a.848.848,0,0,1,.9-.107.953.953,0,0,1,.541.482c1.417,2.779,8,13.344,8.719,15.977a1.177,1.177,0,0,1,.224,1.634q-3.547,4.635-7.069,9.293a76.545,76.545,0,0,0,17.123,14,13.237,13.237,0,0,0,10.48,1.224c4-1,6.011-8.467.3-8.176a.715.715,0,0,1-.5-1.209c6.4-5.31,15.973.212,14.262,8.438l.007.007c.133.43,1.979-2.588,2.067-2.765a5.833,5.833,0,0,1,1.827-2.363c1.7-1.372,4.356-1,6.339-1.046a11.546,11.546,0,0,0,10.573-6.982c1.713-4.256,1.9-9.874-1.03-12.213-5.606-2.963-7.473,2.339-10.1,2.991a4.417,4.417,0,0,1-2.519-8.467,13.9,13.9,0,0,1,10.908,1.939c4.527,2.573,6.168,6.585,6.721,10.622A20.275,20.275,0,0,1,705.92,175.371Z"/><path class="c" d="M640.366,165.528c.623-.8,1.229-1.618,1.836-2.434q-.945-1.24-1.834-2.517-.892,1.278-1.833,2.519C639.139,163.91,639.743,164.728,640.366,165.528Z"/><path class="c" d="M640.429,159.288c.44-.56,4.939-7.64,4.939-7.64l-4.471-8.16-5.512,8.166Z"/><path class="c" d="M649,153.763c-.616-2.63-6.81-12.185-7.955-14.535-2.1,2.492-9.021,13.673-9.531,14.244,2.159,2.85,4.25,5.856,6.416,8.821q1.023-1.168,1.986-2.377-1.348-1.973-2.574-4.023l-2.8-4.239,6.412-9.512,5.224,9.52L641,160.135c.59.73,1.187,1.443,1.8,2.151C644.9,159.43,646.918,156.528,649,153.763Z"/><path class="c" d="M608.786,201.186c-2.823-2.688-2.98-6.01-1.568-8.382,0,0,23.432,1.962,31.215-18.82,1.083-2.893,2.145-1.839,2.979.476,7.53,20.874,31.215,18.819,31.215,18.819,1.412,2.372,1.257,5.694-1.569,8.382-4.836,4.606-11.92,1.265-11.92,1.265,5.019,9.488-3.764,16.288-8.942,11.545,4.55,8.854-.783,19.056-3.921,21.9-2.733,2.479-5.586,11.08-6.275,13.19v.008c-.1.306-.155.48-.155.48s-3.542-11.2-6.275-13.678c-3.136-2.847-8.471-13.522-3.921-22.378-5.176,4.745-13.961-2.057-8.94-11.545C620.709,202.451,613.625,205.792,608.786,201.186Zm52.549.475c1.557.538,5.019,1.107,5.8-.792.633-1.531.516-4.057-1.118-3.839-3.9.519-12.371-2.486-19.9-9.76C652.865,197.549,659.565,201.049,661.335,201.661ZM651.2,211.02a3.736,3.736,0,0,0,4.8.446c1.262-1.065,1.455-3.882.157-4.9-1.974-1.552-10.509-9.963-12.863-19.451C644.392,199.6,650.148,209.747,651.2,211.02ZM635.138,225.3c.126,4.69,3.53,5.708,4.862,5.708s4.585-1.155,4.707-5.708c.14-5.18-3.9-27.567-4.828-32.709C638.81,198.525,635,220.272,635.138,225.3ZM623.845,210.99a3.735,3.735,0,0,0,4.8-.445c1.056-1.273,6.811-11.414,7.909-23.909-2.352,9.488-10.89,17.9-12.862,19.451C622.391,207.109,622.581,209.926,623.845,210.99Zm9.882-24.2c-7.53,7.275-16,10.28-19.9,9.761-1.631-.218-1.751,2.308-1.118,3.841.783,1.9,4.247,1.328,5.8.79C620.282,200.573,626.982,197.074,633.727,186.794Z"/><path class="c" d="M763.336,178.114c-5.474,13.184-15.868,27.293-31.012,29.365-3.852.528-8.151-.66-11.77,1.086-3.58,1.729-6.043,6.316-6.186,10.226-.081,2.328.01,3.641-1.88,1.407-1.812-2.147-5.316-3.081-8-3.053-2.793.028-6.872,2.188-9.611,1.584-2.567-.559-3.437-4.573-1.183-4.979,1.739-.321,3.773-1.311,3-3.718s-3.883-2.3-5.307-.68c-1.535,1.758-1.321,5.324-.741,7.622a13.708,13.708,0,0,0,3.936,6.883c5.1,5.429,13.453,7.352,20.624,6.8,18.878-1.462,46.445-23.572,51.641-63.959C765.9,170.03,764.6,175.06,763.336,178.114Z"/><path class="c" d="M710.791,258.338c16.731-1.649,25.3,3.5,28.344,4.533a5.813,5.813,0,0,0,7.375-3.7,5.881,5.881,0,0,0-3.668-7.43C739.8,250.714,726.621,248.506,710.791,258.338Z"/><path class="c" d="M726.8,268.117c11.519,12.344,12.71,22.328,13.763,25.391a5.809,5.809,0,0,0,7.4,3.628,5.889,5.889,0,0,0,3.6-7.47C750.507,286.6,744.19,274.74,726.8,268.117Z"/><path class="c" d="M862.463,300.574c-16.375-3.834-22.857-11.477-25.418-13.437a5.789,5.789,0,0,0-8.157,1.12A5.908,5.908,0,0,0,830,296.484C832.564,298.445,844.345,304.785,862.463,300.574Z"/><path class="c" d="M714.552,267.467c-6.419-3.084-14.673-3.682-20.769.422-6.26,4.218-9.918,13.643-6.714,20.9,2.934,6.63,11.719,11.569,18.515,7.314,6.951-4.349,7.915-13.005,1.621-18.335-.643-.546-1.341-.025-.62,1.542,2.619,5.688-4.481,8.376-8.328,5.373-5.572-4.351-3.919-12.333,2.274-15.093,7.876-3.506,16.187-1.142,21.637,5.408,11.441,13.745,11.177,33.819,10.04,50.682-.017.255.023,3.438.122,4.9.5,7.224,3.4,14.547,7.116,20.7,3.745,6.209,8.782,9.893,15.342,12.7a.655.655,0,0,0,.512-1.2c-5.374-2.3-10.309-5.242-13.564-10.289a55.385,55.385,0,0,1-7-15.384,29.694,29.694,0,0,1-.774-10.356c2.495-6.015,8.963-11.347,15.693-10.737,4.188.377,8.233,3.355,7.517,8.11-.732,4.843-5.219,7.523-9.471,4.615a.691.691,0,0,0-1.066.6.732.732,0,0,0-.144.287c-.971,4.328,2.854,7.183,6.688,7.969a9.848,9.848,0,0,0,10.893-4.573c5.394-8.831-1.388-20.171-9.746-22.976-9.223-3.1-17.456,3.323-20.541,11.116.6-11.436.148-23.491-3.514-34.287C726.369,275.376,720.951,270.541,714.552,267.467Z"/><path class="c" d="M728.541,318.573c.353-3.238,1.1-6.753-1.8-9.145-3.537-2.919-9.247-1.234-11.512-5.756a.521.521,0,0,0-.284-.259c-.005-.009,0-.025-.01-.04-.238-.684-1.237-.172-1,.506.678,1.955-.221,4.1.218,6.107a7.907,7.907,0,0,0,2.024,3.99c3.171,3.353,8.511,1.109,11.382,4.936C727.877,319.334,728.493,319.025,728.541,318.573Z"/><path class="c" d="M513.153,166.7c5.2,40.387,32.763,62.5,51.641,63.959,7.171.553,15.523-1.37,20.624-6.8a13.708,13.708,0,0,0,3.936-6.883c.58-2.3.794-5.864-.741-7.622-1.424-1.619-4.544-1.72-5.307.68s1.264,3.4,3,3.718c2.254.406,1.384,4.42-1.183,4.979-2.739.6-6.818-1.556-9.611-1.584-2.687-.028-6.191.906-8,3.053-1.89,2.234-1.8.921-1.88-1.407-.143-3.91-2.606-8.5-6.186-10.226-3.619-1.746-7.918-.558-11.77-1.086-15.144-2.072-25.538-16.181-31.012-29.365C515.4,175.06,514.1,170.03,513.153,166.7Z"/><path class="c" d="M537.158,251.745a5.881,5.881,0,0,0-3.668,7.43,5.813,5.813,0,0,0,7.375,3.7c3.044-1.031,11.613-6.182,28.344-4.533C553.379,248.506,540.2,250.714,537.158,251.745Z"/><path class="c" d="M528.44,289.666a5.889,5.889,0,0,0,3.6,7.47,5.809,5.809,0,0,0,7.4-3.628c1.053-3.063,2.244-13.047,13.763-25.391C535.81,274.74,529.493,286.6,528.44,289.666Z"/><path class="c" d="M450,296.484a5.908,5.908,0,0,0,1.115-8.227,5.789,5.789,0,0,0-8.157-1.12c-2.561,1.96-9.043,9.6-25.418,13.437C435.655,304.785,447.436,298.445,450,296.484Z"/><path class="c" d="M549.729,286.867c-3.662,10.8-4.115,22.851-3.514,34.287-3.085-7.793-11.318-14.214-20.541-11.116-8.358,2.8-15.14,14.145-9.746,22.976a9.848,9.848,0,0,0,10.893,4.573c3.834-.786,7.659-3.641,6.688-7.969a.732.732,0,0,0-.144-.287.691.691,0,0,0-1.066-.6c-4.252,2.908-8.739.228-9.471-4.615-.716-4.755,3.329-7.733,7.517-8.11,6.73-.61,13.2,4.722,15.693,10.737a29.694,29.694,0,0,1-.774,10.356,55.385,55.385,0,0,1-7,15.384c-3.255,5.047-8.19,7.987-13.564,10.289a.655.655,0,0,0,.512,1.2c6.56-2.806,11.6-6.49,15.342-12.7,3.712-6.151,6.614-13.474,7.116-20.7.1-1.46.139-4.643.122-4.9-1.137-16.863-1.4-36.937,10.04-50.682,5.45-6.55,13.761-8.914,21.637-5.408,6.193,2.76,7.846,10.742,2.274,15.093-3.847,3-10.947.315-8.328-5.373.721-1.567.023-2.088-.62-1.542-6.294,5.33-5.33,13.986,1.621,18.335,6.8,4.255,15.581-.684,18.515-7.314,3.2-7.259-.454-16.684-6.714-20.9-6.1-4.1-14.35-3.506-20.769-.422C559.049,270.541,553.631,275.376,549.729,286.867Z"/><path class="c" d="M552.44,318.912c2.871-3.827,8.211-1.583,11.382-4.936a7.907,7.907,0,0,0,2.024-3.99c.439-2.01-.46-4.152.218-6.107.236-.678-.763-1.19-1-.506-.006.015-.005.031-.01.04a.521.521,0,0,0-.284.259c-2.265,4.522-7.975,2.837-11.512,5.756-2.9,2.392-2.151,5.907-1.8,9.145C551.507,319.025,552.123,319.334,552.44,318.912Z"/><path class="c" d="M666.46,270.622c.991,4.646-.689,10.439-3.311,14.028-4.463,6.111-13.68,3.937-16.728-2.467-.286-.6-1.046-.338-1.24.163-2.025,5.251-1.708,12.264,2.492,16.448,3.752,3.732,11.175,4.967,17.6-.409a21.113,21.113,0,0,1-4.43,5.048,34.827,34.827,0,0,1-19.106,7.747c-12.524,1.078-31.109-3.615-35.811-22.526a16.5,16.5,0,0,1,1.675-7.515c1.442-2.671,3.615-5.96,6.869-6.527,3.76-.648,8.532.692,10.419,4.342,2.455,4.755.037,8.126-4.636,9.556-.443.135.066,1.461.249,1.631a.014.014,0,0,1,0,.01c.825,1.6,3.32,2.825,5.265,2.8,6.372-.056,10.037-6.266,8.845-12.573a14.346,14.346,0,0,0-10.654-11.633c-12.384-2.853-21.783,8.434-19.323,20.227,4.73,19.426,21.082,24.557,35.018,23.716,12.631-.763,25.491-7.334,29.093-19.142,1.02-1.983,4.758-11.644-1.007-23.4a11.959,11.959,0,0,0-1.038-2.87c-.416-.774-1.585-.1-1.175.674C665.636,268.176,666.259,270.138,666.46,270.622Z"/><path class="c" d="M581.716,217.508c-.843-2.265-2.322-6.011-4.584-10.995a223.142,223.142,0,0,0-17.908-32.168c-8.011-11.836-16.551-21.55-25.38-28.872-11.013-9.134-22.525-14.568-34.214-16.151a101.345,101.345,0,0,0-13.565-.9v2.016h0v-2.016c-44.959,0-84.769,28.29-88.513,32.1a4.308,4.308,0,0,0-1.342,3.125c.01.954.024,2.4,7.825,12.793a243.68,243.68,0,0,0,19.123,22.438c14.637,15.189,37.228,34.322,61.726,39.217a130.307,130.307,0,0,0,25.308,2.257,231.439,231.439,0,0,0,47.822-5.494c24.005-5.3,24.818-8.663,25.255-10.468C583.53,223.314,583.579,222.518,581.716,217.508Z"/><path class="c" d="M882.448,160.525c-3.743-3.813-43.556-32.1-88.509-32.1a101.372,101.372,0,0,0-13.569.9c-11.689,1.583-23.2,7.017-34.213,16.15-8.829,7.322-17.368,17.035-25.38,28.871a223.208,223.208,0,0,0-17.909,32.169c-2.262,4.985-3.741,8.731-4.584,11-1.863,5.01-1.814,5.806-1.553,6.885.438,1.8,1.251,5.164,25.256,10.468a231.437,231.437,0,0,0,47.821,5.494,130.311,130.311,0,0,0,25.309-2.257c24.5-4.9,47.089-24.028,61.726-39.217a243.84,243.84,0,0,0,19.123-22.438c7.8-10.4,7.815-11.839,7.825-12.793A4.3,4.3,0,0,0,882.448,160.525Z"/><path class="f" d="M647.708,261.36a4.456,4.456,0,0,0-1.71-.575,3.973,3.973,0,0,0-4.412,2.685c1.982-4.732-1.327-6.361-1.583-9.628v-.05l0,.024,0-.024v.05c-.255,3.267-3.564,4.9-1.582,9.628A3.975,3.975,0,0,0,634,260.785a4.458,4.458,0,0,0-1.708.575A4.054,4.054,0,0,0,630.8,262.7a4,4,0,0,1,1.386-.293c2.713-.2,4.678,1.585,5.771,3.98a18.48,18.48,0,0,1,1.334,4.761,39.633,39.633,0,0,1,.442,4.938c.032.947.068,2.034.2,3.037l0,.778c.026-.127.041-.264.063-.395.022.131.037.268.063.395,0,0,0-.288,0-.779.133-1,.17-2.09.2-3.036a39.448,39.448,0,0,1,.442-4.938,18.4,18.4,0,0,1,1.334-4.761c1.093-2.4,3.058-4.175,5.77-3.98a4.008,4.008,0,0,1,1.387.293A4.054,4.054,0,0,0,647.708,261.36Z"/></g><path class="b" d="M756.714,340.567l-.031-2.016q1-.015,1.99-.039l.049,2.015Q757.718,340.553,756.714,340.567Zm-234.12-.012q-1-.02-2-.046l.055-2.015q.992.027,1.986.045Zm5.255-.143-.5-1.952c.428-.111,1.078-.284,1.92-.519l.534,1.943C528.947,340.123,528.285,340.3,527.849,340.412Zm235.889-.059-.09-2.015q1-.045,1.99-.1l.107,2.014Q764.743,340.307,763.738,340.353Zm-248.165-.033q-1-.05-2.006-.106l.114-2.013q.993.056,1.989.1Zm235.9-.086c-.511-.137-1.165-.316-1.948-.538l.543-1.941c.771.219,1.417.395,1.92.531Zm19.279-.306-.149-2.011q.995-.075,1.986-.159l.166,2.01Q771.755,339.852,770.754,339.928Zm-262.2-.053q-1-.08-2-.167l.172-2.008q.992.087,1.985.164Zm269.2-.583-.209-2.006q.99-.1,1.978-.218l.227,2Q778.755,339.187,777.755,339.292Zm-276.2-.073q-1-.109-2-.227l.232-2q.988.115,1.979.224Zm33.079-.769-.593-1.926q.906-.283,1.9-.606l.613,1.919Q535.557,338.164,534.639,338.45Zm250.094-.005-.269-2q.987-.137,1.973-.279l.285,2Q785.73,338.309,784.733,338.445Zm-290.149-.094q-.995-.14-1.988-.287l.292-1.994q.984.145,1.972.284Zm250.115-.109q-.918-.293-1.918-.62l.621-1.917q.988.326,1.9.613Zm46.984-.854-.329-1.989q.984-.165,1.962-.338l.346,1.986Q792.675,337.221,791.683,337.388Zm-304.045-.115q-.992-.17-1.979-.346l.351-1.985q.979.176,1.962.343Zm53.69-1.058-.665-1.9q.916-.325,1.874-.677l.686,1.894Q542.257,335.885,541.328,336.215Zm257.271-.1-.389-1.978q.978-.2,1.952-.4l.4,1.975Q799.584,335.923,798.6,336.12Zm-317.873-.135q-.986-.2-1.967-.407l.41-1.973q.973.2,1.951.4Zm257.293,0q-.928-.333-1.893-.692l.691-1.892q.955.355,1.873.685Zm67.453-1.341-.448-1.965q.973-.223,1.94-.457l.463,1.962Q806.451,334.415,805.472,334.641Zm-331.615-.156q-.978-.228-1.955-.466l.469-1.96q.967.236,1.937.462Zm74.07-.757-.738-1.875q.915-.365,1.848-.75l.756,1.867Q548.851,333.359,547.927,333.728Zm183.5-.26q-.924-.372-1.865-.766l.766-1.863q.93.389,1.843.758Zm80.87-.513L811.793,331q.964-.254,1.924-.516l.523,1.946Q813.272,332.7,812.3,332.955Zm-345.264-.176q-.972-.258-1.94-.526l.528-1.945q.96.265,1.922.522Zm352.037-1.718-.564-1.935q.956-.283,1.908-.574l.58,1.93Q820.034,330.776,819.072,331.061Zm-264.649-.087-.813-1.842q.9-.4,1.81-.827l.839,1.83Q555.338,330.564,554.423,330.974Zm-94.156-.11q-.963-.29-1.923-.585l.586-1.928q.953.294,1.906.58Zm264.675-.176q-.91-.415-1.83-.847l.846-1.828q.906.428,1.807.837ZM825.8,328.955l-.621-1.917q.949-.313,1.9-.635l.639,1.911Q826.763,328.638,825.8,328.955Zm-372.244-.211q-.954-.318-1.9-.644l.644-1.909q.942.322,1.888.638Zm107.237-.816-.9-1.8q.883-.448,1.767-.915L562.59,327Q561.693,327.473,560.8,327.928Zm157.787-.317q-.9-.462-1.788-.939l.937-1.781q.879.47,1.761.925Zm113.892-.97-.68-1.9q.94-.344,1.877-.693l.7,1.89Q833.426,326.3,832.476,326.641ZM446.92,326.42q-.944-.347-1.884-.7l.7-1.888q.932.351,1.868.694Zm120.09-1.871-1-1.746q.858-.5,1.708-1.015l1.031,1.728Q567.883,324.041,567.01,324.549Zm145.379-.353q-.873-.515-1.737-1.047l1.043-1.72q.849.522,1.7,1.027Zm126.682-.071-.736-1.875q.928-.371,1.854-.749l.752,1.868Q840.008,323.751,839.071,324.125Zm-398.719-.231q-.933-.375-1.862-.758l.758-1.866q.92.38,1.845.752Zm405.237-2.485-.793-1.851q.918-.4,1.831-.806l.809,1.844Q846.513,321.007,845.589,321.409Zm-411.709-.232q-.918-.4-1.831-.811l.812-1.842q.906.405,1.816.8Zm139.133-.4-1.116-1.673q.824-.56,1.633-1.135l1.153,1.648Q573.855,320.209,573.013,320.781Zm133.393-.4q-.832-.576-1.653-1.169l1.166-1.638q.8.58,1.618,1.143ZM852.017,318.5l-.848-1.826q.9-.426,1.806-.861l.863,1.82Q852.928,318.067,852.017,318.5ZM427.5,318.267q-.906-.429-1.808-.866l.868-1.818q.893.434,1.791.86Zm151.227-1.642L577.542,315q.819-.6,1.624-1.191l1.169,1.636Q579.537,316.024,578.726,316.625Zm122-.4q-.813-.6-1.613-1.177l1.166-1.638q.807.584,1.626,1.187Zm157.628-.83-.9-1.8q.892-.453,1.778-.914l.916,1.792Q859.254,314.933,858.354,315.39Zm-437.15-.226q-.893-.456-1.78-.921l.92-1.79q.882.461,1.767.914Zm163.2-2.614-1.135-1.66q.837-.582,1.659-1.142l1.119,1.671Q585.229,311.974,584.4,312.55Zm110.64-.388q-.832-.573-1.647-1.125l1.113-1.675q.825.558,1.663,1.136Zm169.552-.069-.955-1.771q.876-.481,1.75-.969l.968,1.763Q865.478,311.608,864.593,312.093ZM415,311.87q-.877-.483-1.753-.974l.973-1.762q.867.488,1.739.967Zm175.2-3.2-1.076-1.7q.858-.552,1.7-1.081l1.055,1.712Q591.046,308.119,590.2,308.666Zm280.53-.057-1.008-1.742q.863-.507,1.718-1.021l1.024,1.733Q871.6,308.1,870.729,308.609Zm-461.828-.22q-.864-.51-1.724-1.028l1.025-1.731q.854.513,1.71,1.019Zm280.327-.091q-.849-.541-1.684-1.061l1.051-1.716c.562.35,1.132.708,1.705,1.075Zm-93.093-3.282-1-1.744q.883-.516,1.748-1.006l.979,1.758Q597.007,304.507,596.135,305.016Zm280.619-.075L875.7,303.23q.846-.533,1.687-1.072l1.074,1.7Q877.607,304.4,876.754,304.941ZM402.9,304.724q-.849-.535-1.693-1.08l1.077-1.7q.837.538,1.679,1.071Zm280.376-.048q-.873-.5-1.728-.983l.97-1.763q.868.484,1.752,1Zm-81.052-3.017-.91-1.795q.91-.47,1.8-.91l.882,1.81Q603.124,301.2,602.227,301.659Zm74.942-.308q-.9-.458-1.775-.885l.869-1.815q.894.435,1.808.9Zm205.5-.259-1.109-1.677q.828-.558,1.653-1.123l1.125,1.668Q883.5,300.53,882.668,301.092Zm-485.653-.212q-.833-.562-1.66-1.131l1.126-1.667q.821.564,1.647,1.122Zm211.477-2.208-.794-1.851q.942-.411,1.861-.789l.756,1.866Q609.415,298.27,608.492,298.672Zm62.4-.268q-.926-.395-1.828-.759l.742-1.873q.921.372,1.867.776Zm217.574-1.336-1.158-1.643q.812-.582,1.62-1.172l1.172,1.634Q889.283,296.481,888.463,297.068Zm-497.22-.211q-.816-.586-1.627-1.181l1.176-1.631q.8.589,1.613,1.171Zm223.695-.708-.647-1.908q.973-.334,1.922-.636l.6,1.924Q615.887,295.822,614.938,296.149Zm49.487-.217q-.951-.318-1.88-.6l.582-1.929q.953.293,1.929.619ZM621.561,294.2l-.469-1.96q1-.243,1.978-.45l.411,1.973Q622.533,293.963,621.561,294.2Zm36.225-.154q-.975-.228-1.926-.419l.393-1.977q.978.2,1.982.431Zm-29.454-1.129-.269-2q1.019-.139,2.012-.246l.213,2.005Q629.322,292.781,628.332,292.916Zm265.8-.044-1.207-1.608q.793-.606,1.583-1.219l1.222,1.6Q894.937,292.26,894.135,292.872ZM651,292.828q-.992-.126-1.959-.221l.195-2.007q.995.1,2.014.227Zm-265.411-.166q-.8-.612-1.592-1.23l1.224-1.6q.786.612,1.577,1.219Zm249.615-.353-.086-2.014q1.019-.045,2.019-.066l.044,2.016Q636.2,292.266,635.206,292.309Zm8.914-.027q-1-.035-1.978-.05l.033-2.017c.666.012,1.338.028,2.015.052Zm255.557-3.776-1.254-1.57q.774-.63,1.546-1.267l1.267,1.56Q900.46,287.87,899.677,288.506Zm-519.613-.21q-.781-.635-1.555-1.277l1.27-1.558q.768.637,1.542,1.267Zm525.024-4.319-1.3-1.532q.758-.652,1.507-1.311l1.314,1.519Q905.852,283.318,905.088,283.977Zm-530.42-.211q-.762-.658-1.517-1.324l1.315-1.518q.748.658,1.5,1.311Zm535.691-4.478-1.345-1.492q.737-.675,1.467-1.357l1.358,1.48Q911.1,278.606,910.359,279.288Zm-540.952-.213q-.743-.683-1.478-1.371l1.361-1.477q.729.681,1.464,1.357Zm546.082-4.632-1.388-1.45q.715-.7,1.425-1.4l1.4,1.439Q916.212,273.74,915.489,274.443Zm-551.2-.218q-.72-.705-1.435-1.414l1.4-1.437q.711.7,1.425,1.4Zm556.186-4.777-1.432-1.409q.7-.719,1.386-1.442l1.441,1.4Q921.171,268.723,920.472,269.448Zm-561.161-.226q-.7-.724-1.394-1.456l1.444-1.394q.689.725,1.383,1.444ZM925.3,264.306l-1.471-1.366q.672-.736,1.34-1.481l1.484,1.35Q925.984,263.562,925.3,264.306Zm-570.82-.234q-.68-.747-1.351-1.5l1.486-1.35q.666.747,1.34,1.486Zm575.5-5.051-1.511-1.319q.649-.759,1.295-1.523l1.523,1.307Q930.638,258.255,929.98,259.021Zm-580.169-.245q-.657-.765-1.307-1.538l1.525-1.305q.644.765,1.3,1.526ZM934.5,253.6l-1.551-1.274q.63-.778,1.25-1.56l1.561,1.261Q935.13,252.816,934.5,253.6Zm-589.2-.258q-.633-.784-1.26-1.578l1.563-1.257q.621.784,1.25,1.564Zm593.555-5.295-1.587-1.228q.606-.795,1.2-1.6l1.6,1.213Q939.46,247.245,938.85,248.047Zm-597.907-.274q-.61-.806-1.214-1.616l1.6-1.21q.6.8,1.2,1.6Zm602.092-5.408-1.623-1.178q.581-.813,1.153-1.631l1.635,1.163Q943.621,241.546,943.035,242.365Zm-606.28-.292q-.585-.823-1.165-1.653l1.635-1.161q.574.822,1.155,1.638Zm610.295-5.511-1.658-1.128q.556-.831,1.106-1.665l1.666,1.115Q947.61,235.726,947.05,236.562Zm-614.311-.314q-.561-.842-1.115-1.687l1.668-1.111q.551.839,1.106,1.673Zm618.15-5.606-1.69-1.078q.531-.846,1.055-1.7l1.7,1.064Q951.426,229.789,950.889,230.642ZM328.9,230.3q-.536-.858-1.065-1.721l1.7-1.06q.523.855,1.056,1.705ZM954.55,224.61l-1.723-1.025q.505-.863,1-1.728l1.73,1.012Q955.058,223.742,954.55,224.61Zm-629.315-.368q-.511-.873-1.015-1.753l1.732-1.008q.5.87,1.005,1.736Zm632.793-5.768-1.75-.975q.48-.876.952-1.756l1.759.96Q958.512,217.591,958.028,218.474Zm-636.276-.4q-.485-.89-.961-1.783l1.761-.955q.473.887.953,1.768Zm639.569-5.836-1.779-.92q.452-.89.9-1.783l1.788.9Q961.778,211.338,961.321,212.235ZM318.455,211.8q-.457-.9-.908-1.812l1.789-.9q.447.9.9,1.8ZM964.427,205.9l-1.807-.867q.426-.9.845-1.809l1.812.85Q964.855,204.992,964.427,205.9Zm-649.08-.482q-.43-.918-.853-1.839l1.815-.847q.419.915.846,1.824Zm651.994-5.941-1.832-.81q.4-.915.79-1.834l1.838.795Q967.743,198.558,967.341,199.48Zm-654.91-.528q-.4-.93-.8-1.865l1.84-.791q.392.927.791,1.849Zm657.627-5.976-1.854-.756q.372-.93.737-1.864l1.862.738Q970.435,192.038,970.058,192.976ZM309.709,192.4q-.375-.942-.741-1.89l1.863-.733q.363.939.734,1.874Zm662.884-6.03-1.877-.7q.344-.941.681-1.887l1.883.682Q972.941,185.416,972.593,186.365Zm-665.408-.609q-.346-.954-.685-1.912l1.884-.676q.336.949.679,1.9Zm667.742-6.075-1.9-.641q.316-.951.624-1.906l1.9.623Q975.246,178.721,974.927,179.681Zm-670.066-.642q-.316-.965-.626-1.932l1.9-.619q.307.96.622,1.917Zm672.2-6.111-1.914-.583q.286-.96.566-1.925l1.92.567Q977.348,171.959,977.059,172.928Zm-674.313-.656q-.287-.969-.566-1.943l1.922-.559q.276.964.561,1.926Zm676.241-6.159-1.931-.523q.258-.971.509-1.943l1.936.511Q979.246,165.136,978.987,166.113Zm-678.149-.661q-.258-.978-.508-1.959l1.937-.5q.248.974.5,1.942Zm679.873-6.209-1.946-.464q.228-.978.451-1.958l1.949.452Q980.94,158.258,980.711,159.243Zm-681.576-.665q-.23-.987-.448-1.976l1.951-.441q.217.981.445,1.957Zm683.092-6.255-1.959-.4q.2-.982.391-1.969l1.963.39Q982.427,151.332,982.227,152.323Zm-684.588-.671q-.2-.993-.389-1.987l1.963-.382q.189.985.386,1.97Zm685.895-6.291-1.971-.346q.172-.988.333-1.979l1.973.328C983.761,144.031,983.648,144.7,983.534,145.361Zm-687.183-.675q-.17-1-.33-2l1.975-.322q.159.991.327,1.979Zm688.282-6.324-1.981-.286q.143-.993.275-1.988l1.982.269Q984.774,137.361,984.633,138.362Zm-689.361-.678q-.14-1-.27-2.007l1.983-.263q.131,1,.267,1.99Zm690.251-6.352-1.988-.224q.111-1,.215-2l1.988.21Q985.635,130.328,985.523,131.332Zm-691.121-.68q-.108-1-.21-2.014l1.99-.2q.1,1,.208,2Zm691.8-6.372-1.993-.165q.081-1,.154-2l1.994.147Q986.287,123.272,986.2,124.28ZM293.741,123.6q-.08-1.008-.15-2.019l1.995-.142q.069,1,.149,2Zm692.935-6.386-2-.106q.053-1,.1-2l2,.085Q986.729,116.2,986.676,117.211Zm-693.386-.685q-.05-1.011-.091-2.023l2-.082q.042,1,.091,2.006Zm693.647-6.385-2-.044q.023-1,.037-2l2,.027Q986.961,109.131,986.937,110.141Zm-693.89-.7q-.02-1.011-.031-2.024l2-.024q.011,1,.031,2.008ZM987,103.066h-2v-2.017h2Zm-692-.7h-2v-2.017h2Zm692-6.361h-2V93.992h2Zm-692-.7h-2V93.295h2Zm692-6.36h-2V86.935h2Zm-692-.7h-2V86.238h2Zm692-6.36h-2V79.877h2Zm-692-.7h-2V79.18h2Zm692-6.361h-2V72.82h2Zm-692-.7h-2V72.123h2Zm692-6.36h-2V65.763h2Zm-692-.7h-2V65.066h2Zm692-6.36h-2V58.705h2Zm-692-.7h-2V58.008h2Zm344.925-.717q-1.006,0-2.008-.011l.019-2.016q.995.009,1.992.01Zm5.022-.055-.043-2.016q1-.021,1.992-.05l.058,2.015Q645.952,59.232,644.947,59.253ZM632.9,59.2q-1-.03-2.006-.068l.075-2.015q.993.038,1.991.068ZM651.97,59l-.1-2.014q1-.05,1.99-.107l.114,2.014Q652.975,58.954,651.97,59Zm-26.091-.116q-1-.059-2-.123l.13-2.013q.993.066,1.988.123Zm33.1-.326-.152-2.01q.994-.076,1.986-.16l.166,2.01C660.317,58.458,659.649,58.511,658.982,58.562ZM618.87,58.39q-1-.085-2-.176l.181-2.009q.99.091,1.986.175Zm47.109-.453-.2-2.005q.992-.1,1.983-.21l.215,2.005Q666.979,57.835,665.979,57.937Zm-54.1-.227q-1-.109-1.995-.226l.231-2q.987.115,1.981.224Zm61.081-.571-.25-2q.99-.126,1.978-.257l.261,2Q673.955,57.012,672.959,57.139Zm-68.053-.277q-1-.134-1.988-.272l.275-2q.985.138,1.976.271Zm75.011-.683-.295-1.994q.987-.149,1.972-.3l.3,1.993Q680.91,56.03,679.917,56.179Zm-81.961-.325q-.994-.155-1.982-.316l.318-1.99q.983.159,1.969.313Zm88.892-.786-.334-1.988q.986-.168,1.965-.341l.346,1.986Q687.84,54.9,686.848,55.068ZM591.03,54.7q-.99-.176-1.975-.355l.356-1.984q.98.178,1.964.353Zm102.726-.881-.371-1.981q.981-.187,1.96-.378l.381,1.979Q694.743,53.631,693.756,53.819ZM987,53.664h-2V51.648h2Zm-402.872-.253-1.967-.39.391-1.978,1.958.389ZM295,52.967h-2V50.951h2Zm405.642-.52-.405-1.975,1.953-.411.414,1.973ZM577.252,52l-1.961-.422.423-1.971,1.951.42ZM707.5,50.964l-.432-1.969,1.947-.44.441,1.967ZM570.4,50.49l-1.954-.45.449-1.966,1.946.449Zm143.938-1.105-.459-1.962,1.944-.465.463,1.962Zm-150.768-.5-1.948-.472.471-1.96,1.942.471ZM721.152,47.73l-.478-1.957,1.94-.484.483,1.956ZM556.76,47.209l-1.943-.49.488-1.955,1.938.489Zm430.24-.6h-2V44.59h2Zm-259.05-.593-.492-1.955,1.937-.5.5,1.954ZM295,45.91h-2V43.893h2Zm254.965-.432-1.938-.5.5-1.952,1.937.5ZM356.832,44.283q-1.011-.009-2.014-.031l.043-2.016q.99.022,1.988.031Zm567.032-.007-.025-2.016q1-.013,1.987-.039l.051,2.016Q924.875,44.263,923.864,44.276Zm-5.031-.011q-1-.02-2.012-.05l.061-2.015q1,.031,1.986.048Zm-184.1-.01-.5-1.951,1.936-.507.5,1.951Zm-372.876,0-.044-2.016q.99-.022,1.986-.058l.071,2.016Q362.865,44.227,361.862,44.251Zm554.1-.064q-1.009-.038-2.008-.083l.094-2.015q.985.046,1.986.082Zm-566.173-.118q-1.009-.052-2.009-.116l.125-2.012q.987.063,1.986.114ZM930.9,44.032l-.111-2.013q1-.056,1.985-.122l.135,2.011Q931.913,43.975,930.9,44.032Zm-562.01-.081-.119-2.012q1-.062,1.984-.131l.14,2.012C370.233,43.866,369.565,43.911,368.893,43.951Zm540.051-.142q-1.008-.072-2-.153l.161-2.01q.987.08,1.983.151Zm-365.761-.1-1.936-.508.5-1.951,1.936.508Zm-200.415-.147q-1.01-.093-2-.2l.206-2.006q.984.1,1.979.194ZM937.926,43.5l-.192-2.007q1-.1,1.98-.2l.213,2Q938.932,43.4,937.926,43.5ZM375.9,43.406l-.188-2.007q.994-.094,1.98-.2l.206,2.006Q376.906,43.311,375.9,43.406Zm526.04-.216q-1-.1-2-.219l.225-2q.984.113,1.978.217ZM335.77,42.776q-1-.132-1.993-.274l.28-2q.978.139,1.972.271Zm609.15-.092-.268-2q.995-.135,1.971-.279l.289,1.995Q945.925,42.548,944.92,42.684ZM382.886,42.63l-.249-2q.992-.126,1.974-.259l.266,2Q383.887,42.5,382.886,42.63Zm358.628-.153-.506-1.951,1.885-.5.555,1.938Zm153.452-.129q-1-.135-1.988-.278l.283-2q.981.141,1.972.275ZM536.409,41.93l-1.936-.508.5-1.951,1.936.508Zm-207.6-.209q-1-.171-1.98-.349l.353-1.984q.971.176,1.962.346Zm61.035-.072-.3-1.993q.987-.153,1.968-.312l.316,1.991Q390.837,41.494,389.842,41.649ZM951.877,41.6l-.34-1.987q.99-.173,1.959-.352l.361,1.982Q952.879,41.429,951.877,41.6Zm-63.856-.293q-1-.161-1.98-.327l.33-1.989q.98.165,1.966.325ZM748.286,40.7l-.5-1.952,1.94-.5.5,1.954ZM396.766,40.5l-.345-1.986q.984-.174,1.962-.352l.356,1.984Q397.755,40.321,396.766,40.5Zm-74.876-.09q-1-.208-1.968-.422l.428-1.97q.959.211,1.946.418Zm636.9-.144-.414-1.973q.987-.21,1.945-.425l.436,1.968Q959.786,40.05,958.79,40.262Zm-429.155-.1-1.937-.5.494-1.954,1.94.5Zm351.47-.049q-.992-.18-1.977-.366l.365-1.983q.983.186,1.968.365ZM987,39.55h-2V37.533h2Zm-583.339-.331-.374-1.981,1.954-.378.38,1.98Zm351.4-.259L754.578,37l1.943-.489L757,38.472ZM295,38.852h-2V36.836h2Zm20.024-.016q-.994-.247-1.95-.5l.5-1.952q.947.246,1.93.49Zm559.181-.03-1.967-.386.387-1.979,1.961.385Zm91.446-.139-.486-1.956q.984-.247,1.929-.5l.506,1.95Q966.646,38.416,965.651,38.667Zm-442.8-.231-1.938-.482L521.391,36l1.945.483Zm-112.326-.565-.388-1.978,1.959-.39.388,1.978Zm456.806-.425-1.96-.39.389-1.978,1.958.39ZM761.851,37.28l-.463-1.962,1.951-.464.455,1.963Zm-453.632-.27q-1-.286-1.932-.57l.573-1.931q.924.279,1.91.563Zm664.23-.194-.558-1.936q.984-.288,1.908-.571l.58,1.93Q973.444,36.524,972.449,36.816Zm-456.387-.033-1.944-.453.446-1.965,1.953.455Zm-98.673-.275-.384-1.979,1.967-.385.379,1.98Zm443.086-.417-1.955-.378.373-1.981,1.961.379ZM768.657,35.7l-.429-1.969q.984-.219,1.96-.428l.416,1.972Q769.636,35.486,768.657,35.7ZM509.25,35.246q-.98-.208-1.952-.411l.4-1.975q.978.2,1.964.414Zm-84.993-.057-.363-1.983,1.978-.364.354,1.985Zm-122.772-.27q-1.015-.339-1.909-.651l.653-1.906q.882.308,1.885.643Zm552.132-.12q-.978-.178-1.964-.351L852,32.461q.99.174,1.974.353Zm125.56-.1-.639-1.911q1.008-.342,1.881-.652l.664,1.9C980.493,34.245,979.856,34.466,979.177,34.7Zm-203.69-.422-.381-1.98q.992-.193,1.975-.376l.361,1.983Q776.47,34.083,775.487,34.275Zm-344.349-.306-.329-1.988q.986-.167,1.98-.326l.315,1.992Q432.117,33.8,431.138,33.969Zm71.274-.094q-.984-.181-1.959-.352l.342-1.987q.985.171,1.978.357Zm344.328-.253q-.981-.156-1.969-.308l.3-1.993q.995.152,1.982.31Zm-64.394-.568-.313-1.992q1-.159,1.989-.306l.29,2Q783.332,32.9,782.346,33.054ZM438.027,32.9l-.279-2q.992-.141,1.989-.274l.263,2Q439.01,32.762,438.027,32.9Zm57.516-.172q-.988-.146-1.968-.276l.262-2q.993.132,1.994.278Zm344.3-.121q-.982-.131-1.976-.255l.246-2q1,.125,1.992.257Zm-545.006-.1c-.807-.321-1.23-.5-1.23-.5l.091-.213H293V29.553l1.393.6c.008,0,.412.177,1.176.481ZM987,32.492h-2V31.081h.349l-.283-.7c.35-.142.533-.222.538-.224l1.4-.605Zm-197.769-.383-.21-2,.229-.026c.593-.065,1.179-.128,1.763-.188l.2,2q-.867.092-1.746.187Zm-344.292-.086-.22-2q.993-.111,2-.214l.2,2.007Q445.924,31.912,444.939,32.023Zm43.7-.142q-1-.1-1.982-.194l.185-2.007q.993.091,2,.195ZM832.925,31.8q-.985-.1-1.981-.191l.182-2.009q1,.093,2,.194Zm-36.754-.355-.156-2.011q1.006-.079,2-.151l.142,2.011Q797.171,31.36,796.171,31.441Zm-344.3-.076-.154-2.011c.664-.051,1.332-.1,2-.146l.136,2.011Q452.857,31.288,451.871,31.365Zm29.823-.086q-1-.07-1.988-.131l.122-2.013q1,.062,2.005.133Zm344.292-.07Q825,31.141,824,31.085l.115-2.014q1.01.06,2.006.126Zm-22.861-.216-.094-2.014q1.011-.048,2.006-.085l.076,2.014Q804.126,30.946,803.125,30.993Zm-344.3-.05-.086-2.014q1-.044,2.008-.077l.065,2.016Q459.808,30.9,458.82,30.943Zm15.914-.04q-1-.039-1.991-.065l.055-2.016q1,.027,2.01.065Zm344.3-.04q-.988-.032-1.988-.053l.043-2.016q1.009.021,2.008.054Zm-8.951-.083-.025-2.016q1.009-.014,2.007-.017l.008,2.016Q811.085,30.768,810.084,30.78Zm-344.307-.013-.013-2.016q.741-.006,1.49-.006h.519l-.006,2.016h-.513Q466.513,30.762,465.777,30.767Z"/></g></svg>