<svg xmlns="http://www.w3.org/2000/svg" xmlns:xlink="http://www.w3.org/1999/xlink" width="252" height="32" viewBox="0 0 252 32"><defs><style>.a{fill:none;}.b,.g{fill:#1c1c1c;}.c{clip-path:url(#a);}.d{fill:#fff;stroke-miterlimit:10;}.e{fill:#f2d68c;}.f,.g{stroke:none;}</style><clipPath id="a"><rect class="a" width="252" height="18.132" transform="translate(514 399)"/></clipPath></defs><g transform="translate(-514 -385.735)"><path class="b" d="M528.294,417.132a12.849,12.849,0,0,1-9.841-4.141,15.237,15.237,0,0,1-3.848-10.722v-1.046a15.338,15.338,0,0,1,3.828-10.723,12.806,12.806,0,0,1,9.861-4.161,15.2,15.2,0,0,1,6.287,1.26,13.556,13.556,0,0,1,4.466,3.153v5.317H535.52l-.594-3.828-.139-.139a7.168,7.168,0,0,0-2.538-1.589,9.947,9.947,0,0,0-3.527-.574,7.956,7.956,0,0,0-6.753,3.191,13.185,13.185,0,0,0-2.317,8.05v1.089a13.322,13.322,0,0,0,2.3,8.069,7.822,7.822,0,0,0,6.66,3.216,10.843,10.843,0,0,0,3.575-.568,6.26,6.26,0,0,0,2.616-1.617l.122-.134.591-3.812h3.527v5.321a12.954,12.954,0,0,1-4.451,3.147A15.5,15.5,0,0,1,528.294,417.132Z"/><path class="b" d="M562.095,416.684v-2.637l3.343-.641V403.76H551.5v9.646l3.343.641v2.637H543.129v-2.638l3.321-.641V390.088l-3.321-.641v-2.659h11.712v2.659l-3.343.641V400.16h13.94V390.087l-3.343-.641v-2.659h11.712v2.659l-3.344.641v23.318l3.344.641v2.637Z"/><path class="b" d="M596.276,416.684v-2.63l2.347-.417-1.717-5.348h-11l-1.716,5.348,2.346.417v2.63h-9.419V414.07l2.072-.3,9.474-26.986h5.548l9.409,26.986,2.074.3v2.614ZM587,404.9h8.815l-3.9-12.165H590.9Z"/><path class="b" d="M612.82,416.684v-2.637l3.344-.641V390.387h-6.889l-.257,3.482h-3.612v-7.083h26.606v7.083h-3.633l-.257-3.482h-6.911v23.018l3.343.641v2.637Z"/><path class="b" d="M659.534,416.684c-1.834,0-3.121-.473-3.825-1.4a6.312,6.312,0,0,1-1.121-3.888v-1.773a5.6,5.6,0,0,0-1.373-3.968,5.252,5.252,0,0,0-3.842-1.548h-5.745v9.3l3.343.641v2.638H635.258v-2.638l3.322-.641V390.088l-3.322-.641v-2.66h13.411c3.385,0,6.062.771,7.957,2.292a7.474,7.474,0,0,1,2.8,6.226,6.083,6.083,0,0,1-1.149,3.725,8.281,8.281,0,0,1-3.462,2.6l-1.518.663,1.59.468a6.178,6.178,0,0,1,3.637,2.448,7.972,7.972,0,0,1,1.117,4.364v1.581a3.268,3.268,0,0,0,.52,1.943,2.4,2.4,0,0,0,1.772.921l.237.033v2.631ZM643.628,400.5h4.933a6.527,6.527,0,0,0,4.314-1.255,4.563,4.563,0,0,0,1.52-3.664,5.025,5.025,0,0,0-1.48-3.776,5.907,5.907,0,0,0-4.246-1.42h-5.041Z"/><path class="b" d="M679.164,417.132a12.362,12.362,0,0,1-9.755-4.257,16.073,16.073,0,0,1-3.742-10.9v-.47a16.12,16.12,0,0,1,3.733-10.885,12.3,12.3,0,0,1,9.743-4.277,12.482,12.482,0,0,1,9.819,4.28,15.975,15.975,0,0,1,3.784,10.882v.47a15.983,15.983,0,0,1-3.772,10.9A12.483,12.483,0,0,1,679.164,417.132ZM679.143,390a7.136,7.136,0,0,0-6.392,3.266,14.9,14.9,0,0,0-2.035,8.189v.513a14.91,14.91,0,0,0,2.058,8.243,7.16,7.16,0,0,0,6.39,3.276,7.277,7.277,0,0,0,6.462-3.272,14.732,14.732,0,0,0,2.094-8.247v-.513a14.5,14.5,0,0,0-2.117-8.174A7.3,7.3,0,0,0,679.143,390Z"/><path class="b" d="M710.2,417.132a12.359,12.359,0,0,1-9.754-4.257,16.064,16.064,0,0,1-3.742-10.9v-.47a16.116,16.116,0,0,1,3.732-10.885,12.3,12.3,0,0,1,9.742-4.277,12.486,12.486,0,0,1,9.821,4.28,15.975,15.975,0,0,1,3.784,10.882v.47a15.983,15.983,0,0,1-3.773,10.9A12.48,12.48,0,0,1,710.2,417.132ZM710.173,390a7.131,7.131,0,0,0-6.39,3.266,14.891,14.891,0,0,0-2.037,8.189v.513a14.907,14.907,0,0,0,2.059,8.243,7.161,7.161,0,0,0,6.39,3.276,7.277,7.277,0,0,0,6.462-3.272,14.723,14.723,0,0,0,2.093-8.247v-.513a14.5,14.5,0,0,0-2.116-8.175A7.3,7.3,0,0,0,710.173,390Z"/><path class="b" d="M753.681,416.684v-2.638L757,413.4v-5.389l.623-14.242-1.153-.193-8.386,23.1h-3.351l-8.342-23.017-1.155.193.624,14.183v5.363l3.343.641v2.637H727.494v-2.638l3.321-.641V390.088l-3.321-.641v-2.659h10.451l7.95,22.922h.99l8.015-22.922H765.4v2.659l-3.343.641v23.318l3.343.641v2.637Z"/><g class="c"><g class="d"><path class="f" d="M 528.2940063476563 416.3819885253906 C 524.5205078125 416.3819885253906 521.3948974609375 415.0698547363281 519.0038452148438 412.4820251464844 C 516.5825805664063 409.8626403808594 515.35498046875 406.426513671875 515.35498046875 402.2690124511719 L 515.35498046875 401.2229919433594 C 515.35498046875 397.078125 516.5767822265625 393.6406860351563 518.9863891601563 391.0061950683594 C 521.3644409179688 388.4069519042969 524.4959716796875 387.0889892578125 528.2940063476563 387.0889892578125 C 530.5045776367188 387.0889892578125 532.5160522460938 387.4906005859375 534.272705078125 388.28271484375 C 535.8587646484375 388.9972229003906 537.2111206054688 389.9272766113281 538.2969970703125 391.0497436523438 L 538.2969970703125 395.3190002441406 L 536.16259765625 395.3190002441406 L 535.6671752929688 392.1260070800781 L 535.6295776367188 391.8838500976563 L 535.456298828125 391.7105712890625 L 535.3172607421875 391.5715942382813 C 534.5684814453125 390.826171875 533.6262817382813 390.2345275878906 532.5156860351563 389.81201171875 C 531.428466796875 389.3985900878906 530.152099609375 389.1889953613281 528.7219848632813 389.1889953613281 C 525.5684814453125 389.1889953613281 523.0941162109375 390.3641967773438 521.3675537109375 392.6819458007813 C 519.7315063476563 394.8778686523438 518.9019775390625 397.7370300292969 518.9019775390625 401.1799926757813 L 518.9019775390625 402.2690124511719 C 518.9019775390625 405.7109069824219 519.726318359375 408.5753479003906 521.3521118164063 410.7827758789063 C 523.0718383789063 413.1192321777344 525.5158081054688 414.3039855957031 528.6160278320313 414.3039855957031 C 529.9918212890625 414.3039855957031 531.2777099609375 414.0988159179688 532.43798828125 413.6941528320313 C 533.6685791015625 413.2651977539063 534.6522216796875 412.6527709960938 535.3615112304688 411.8739929199219 L 535.4835815429688 411.7399291992188 L 535.6355590820313 411.572998046875 L 535.670166015625 411.3498840332031 L 536.1627197265625 408.1730041503906 L 538.2969970703125 408.1730041503906 L 538.2969970703125 412.4505004882813 C 537.2266845703125 413.5776977539063 535.8810424804688 414.5036010742188 534.2930297851563 415.2049255371094 C 532.5260620117188 415.9859924316406 530.5078125 416.3819885253906 528.2940063476563 416.3819885253906 Z"/><path class="g" d="M 528.2940063476563 415.6319885253906 C 530.4027099609375 415.6319885253906 532.3189697265625 415.257568359375 533.989990234375 414.5188598632813 C 535.3858642578125 413.9023742675781 536.579833984375 413.105224609375 537.5469970703125 412.1448364257813 L 537.5469970703125 408.9230041503906 L 536.8053588867188 408.9230041503906 L 536.4113159179688 411.4647827148438 L 536.3421020507813 411.9109802246094 L 536.0381469726563 412.244873046875 L 535.916015625 412.3789978027344 C 535.1217651367188 413.2510986328125 534.0346069335938 413.9318542480469 532.6849365234375 414.4023132324219 C 531.4451293945313 414.8347473144531 530.0761108398438 415.0539855957031 528.6160278320313 415.0539855957031 C 525.3114013671875 415.0539855957031 522.5906982421875 413.730712890625 520.7482299804688 411.2275390625 C 519.0254516601563 408.8884887695313 518.1519775390625 405.8743896484375 518.1519775390625 402.2690124511719 L 518.1519775390625 401.1799926757813 C 518.1519775390625 397.572021484375 519.031494140625 394.5621032714844 520.7660522460938 392.2339172363281 C 522.615478515625 389.7512512207031 525.3665771484375 388.4389953613281 528.7219848632813 388.4389953613281 C 530.2435302734375 388.4389953613281 531.6095581054688 388.6650695800781 532.7824096679688 389.1110534667969 C 533.9920043945313 389.5712280273438 535.0224609375 390.2198791503906 535.8474731445313 391.0411987304688 L 535.9865112304688 391.18017578125 L 536.3331298828125 391.5266723632813 L 536.4082641601563 392.010986328125 L 536.8052368164063 394.5690002441406 L 537.5469970703125 394.5690002441406 L 537.5469970703125 391.3592529296875 C 536.5643920898438 390.3994140625 535.3619384765625 389.5960083007813 533.9644165039063 388.9664001464844 C 532.3053588867188 388.2183227539063 530.3975219726563 387.8389892578125 528.2940063476563 387.8389892578125 C 526.4962768554688 387.8389892578125 524.845458984375 388.1509094238281 523.3875122070313 388.7661437988281 C 521.9444580078125 389.3750305175781 520.64990234375 390.2990417480469 519.539794921875 391.5123596191406 C 517.2606201171875 394.0042724609375 516.10498046875 397.2713928222656 516.10498046875 401.2229919433594 L 516.10498046875 402.2690124511719 C 516.10498046875 406.2317504882813 517.2655639648438 409.49658203125 519.5547485351563 411.9730529785156 C 521.7979736328125 414.4009399414063 524.73828125 415.6319885253906 528.2940063476563 415.6319885253906 M 528.2940063476563 417.1319885253906 C 524.302978515625 417.1319885253906 520.9920043945313 415.739013671875 518.4530029296875 412.9909973144531 C 515.8989868164063 410.2279968261719 514.60498046875 406.6210021972656 514.60498046875 402.2690124511719 L 514.60498046875 401.2229919433594 C 514.60498046875 396.885009765625 515.8930053710938 393.2770080566406 518.4329833984375 390.5 C 520.958984375 387.739013671875 524.2769775390625 386.3389892578125 528.2940063476563 386.3389892578125 C 530.6110229492188 386.3389892578125 532.7269897460938 386.7630004882813 534.5809936523438 387.5989990234375 C 536.3590087890625 388.3999938964844 537.8599853515625 389.4599914550781 539.0469970703125 390.7520141601563 L 539.0469970703125 396.0690002441406 L 535.52001953125 396.0690002441406 L 534.926025390625 392.2409973144531 L 534.7869873046875 392.1019897460938 C 534.114990234375 391.4330139160156 533.260986328125 390.8980102539063 532.2490234375 390.5130004882813 C 531.2470092773438 390.1319885253906 530.0599975585938 389.9389953613281 528.7219848632813 389.9389953613281 C 525.8189697265625 389.9389953613281 523.5460205078125 391.0130004882813 521.968994140625 393.1300048828125 C 520.4320068359375 395.1929931640625 519.6519775390625 397.9010009765625 519.6519775390625 401.1799926757813 L 519.6519775390625 402.2690124511719 C 519.6519775390625 405.5469970703125 520.427001953125 408.2619934082031 521.9559936523438 410.3380126953125 C 523.5260009765625 412.4710083007813 525.7670288085938 413.5539855957031 528.6160278320313 413.5539855957031 C 529.906982421875 413.5539855957031 531.1099853515625 413.3630065917969 532.1909790039063 412.9859924316406 C 533.3040161132813 412.5979919433594 534.1840209960938 412.0530090332031 534.8070068359375 411.3689880371094 L 534.9290161132813 411.2349853515625 L 535.52001953125 407.4230041503906 L 539.0469970703125 407.4230041503906 L 539.0469970703125 412.7439880371094 C 537.875 414.0459899902344 536.3779907226563 415.10400390625 534.5960083007813 415.8909912109375 C 532.7319946289063 416.7149963378906 530.6119995117188 417.1319885253906 528.2940063476563 417.1319885253906 Z"/></g><g class="d"><path class="f" d="M 573.05712890625 415.9336853027344 L 562.8446655273438 415.9336853027344 L 562.8446655273438 414.6661682128906 L 565.5789794921875 414.1419677734375 L 566.187744140625 414.0252380371094 L 566.187744140625 413.4053649902344 L 566.187744140625 403.7597961425781 L 566.187744140625 403.0097961425781 L 565.437744140625 403.0097961425781 L 551.4979248046875 403.0097961425781 L 550.7479248046875 403.0097961425781 L 550.7479248046875 403.7597961425781 L 550.7479248046875 413.4053649902344 L 550.7479248046875 414.0252380371094 L 551.356689453125 414.1419372558594 L 554.0909423828125 414.6661682128906 L 554.0909423828125 415.9336853027344 L 543.8789672851563 415.9336853027344 L 543.8789672851563 414.6649169921875 L 546.5924682617188 414.1412658691406 L 547.2003784179688 414.0239562988281 L 547.2003784179688 413.4048461914063 L 547.2003784179688 390.0875244140625 L 547.2003784179688 389.4684143066406 L 546.5924682617188 389.3511047363281 L 543.8789672851563 388.8274536132813 L 543.8789672851563 387.537109375 L 554.0909423828125 387.537109375 L 554.0909423828125 388.8262023925781 L 551.356689453125 389.3504638671875 L 550.7479248046875 389.4671630859375 L 550.7479248046875 390.0870361328125 L 550.7479248046875 400.1595458984375 L 550.7479248046875 400.9095458984375 L 551.4979248046875 400.9095458984375 L 565.437744140625 400.9095458984375 L 566.187744140625 400.9095458984375 L 566.187744140625 400.1595458984375 L 566.187744140625 390.0870361328125 L 566.187744140625 389.4671630859375 L 565.5789794921875 389.3504638671875 L 562.8446655273438 388.8262023925781 L 562.8446655273438 387.537109375 L 573.05712890625 387.537109375 L 573.05712890625 388.8262023925781 L 570.3223876953125 389.3504333496094 L 569.713623046875 389.4671630859375 L 569.713623046875 390.0870361328125 L 569.713623046875 413.4053649902344 L 569.713623046875 414.0252380371094 L 570.3224487304688 414.1419677734375 L 573.05712890625 414.6661682128906 L 573.05712890625 415.9336853027344 Z"/><path class="g" d="M 571.7730102539063 415.1836853027344 L 570.1812133789063 414.8785400390625 L 568.963623046875 414.6451416015625 L 568.963623046875 413.4053649902344 L 568.963623046875 390.0870361328125 L 568.963623046875 388.8472595214844 L 570.1812133789063 388.6138610839844 L 571.8856811523438 388.287109375 L 564.0159301757813 388.287109375 L 565.72021484375 388.6138610839844 L 566.937744140625 388.8472900390625 L 566.937744140625 390.0870361328125 L 566.937744140625 400.1595458984375 L 566.937744140625 401.6595458984375 L 565.437744140625 401.6595458984375 L 551.4979248046875 401.6595458984375 L 549.9979248046875 401.6595458984375 L 549.9979248046875 400.1595458984375 L 549.9979248046875 390.0870361328125 L 549.9979248046875 388.8473205566406 L 551.2154541015625 388.6138610839844 L 552.919677734375 388.287109375 L 545.037109375 388.287109375 L 546.734619140625 388.6146850585938 L 547.9503784179688 388.8493041992188 L 547.9503784179688 390.0875244140625 L 547.9503784179688 413.4048461914063 L 547.9503784179688 414.64306640625 L 546.734619140625 414.877685546875 L 545.1488647460938 415.1836853027344 L 552.80712890625 415.1836853027344 L 551.2155151367188 414.8785400390625 L 549.9979248046875 414.6451110839844 L 549.9979248046875 413.4053649902344 L 549.9979248046875 403.7597961425781 L 549.9979248046875 402.2597961425781 L 551.4979248046875 402.2597961425781 L 565.437744140625 402.2597961425781 L 566.937744140625 402.2597961425781 L 566.937744140625 403.7597961425781 L 566.937744140625 413.4053649902344 L 566.937744140625 414.6451110839844 L 565.7201538085938 414.8785400390625 L 564.1285400390625 415.1836853027344 L 571.7730102539063 415.1836853027344 M 573.80712890625 416.6836853027344 L 562.0946655273438 416.6836853027344 L 562.0946655273438 414.0462951660156 L 565.437744140625 413.4053649902344 L 565.437744140625 403.7597961425781 L 551.4979248046875 403.7597961425781 L 551.4979248046875 413.4053649902344 L 554.8409423828125 414.0462951660156 L 554.8409423828125 416.6836853027344 L 543.1289672851563 416.6836853027344 L 543.1289672851563 414.0458068847656 L 546.4503784179688 413.4048461914063 L 546.4503784179688 390.0875244140625 L 543.1289672851563 389.4465637207031 L 543.1289672851563 386.787109375 L 554.8409423828125 386.787109375 L 554.8409423828125 389.4460754394531 L 551.4979248046875 390.0870361328125 L 551.4979248046875 400.1595458984375 L 565.437744140625 400.1595458984375 L 565.437744140625 390.0870361328125 L 562.0946655273438 389.4460754394531 L 562.0946655273438 386.787109375 L 573.80712890625 386.787109375 L 573.80712890625 389.4460754394531 L 570.463623046875 390.0870361328125 L 570.463623046875 413.4053649902344 L 573.80712890625 414.0462951660156 L 573.80712890625 416.6836853027344 Z"/></g><g class="d"><path class="f" d="M 604.9450073242188 415.9339904785156 L 597.0260009765625 415.9339904785156 L 597.0260009765625 414.6824951171875 L 598.7542114257813 414.3754272460938 L 599.5995483398438 414.2252197265625 L 599.3370971679688 413.4077453613281 L 597.6201171875 408.0597534179688 L 597.4529418945313 407.5390014648438 L 596.906005859375 407.5390014648438 L 585.906982421875 407.5390014648438 L 585.3599853515625 407.5390014648438 L 585.19287109375 408.0598754882813 L 583.4768676757813 413.4078674316406 L 583.214599609375 414.2251892089844 L 584.0597534179688 414.3754272460938 L 585.7869873046875 414.6824340820313 L 585.7869873046875 415.9339904785156 L 577.8679809570313 415.9339904785156 L 577.8679809570313 414.7201538085938 L 579.29638671875 414.5154113769531 L 579.7468872070313 414.4508666992188 L 579.8976440429688 414.0214538574219 L 589.195556640625 387.5369873046875 L 593.67919921875 387.5369873046875 L 602.9127807617188 414.0199279785156 L 603.06298828125 414.4507751464844 L 603.5146484375 414.5154418945313 L 604.9450073242188 414.7202758789063 L 604.9450073242188 415.9339904785156 Z M 590.3529052734375 391.9869995117188 L 590.1858520507813 392.5079956054688 L 586.2848510742188 404.6729736328125 L 585.9708862304688 405.6520080566406 L 586.9990234375 405.6520080566406 L 595.8140258789063 405.6520080566406 L 596.8422241210938 405.6520080566406 L 596.5281982421875 404.6729431152344 L 592.6261596679688 392.5079345703125 L 592.4590454101563 391.9869995117188 L 591.9119873046875 391.9869995117188 L 590.9000244140625 391.9869995117188 L 590.3529052734375 391.9869995117188 Z"/><path class="g" d="M 602.8924560546875 415.1839904785156 L 602.5050048828125 415.1285095214844 L 602.20458984375 414.266845703125 L 593.1464233398438 388.2869873046875 L 589.7271728515625 388.2869873046875 L 580.6052856445313 414.2698974609375 L 580.3038330078125 415.1286926269531 L 579.9180297851563 415.1839904785156 L 584.3231201171875 415.1839904785156 L 583.928466796875 415.1138305664063 L 582.2381591796875 414.8134155273438 L 582.7626953125 413.1787109375 L 584.4786987304688 407.8307189941406 L 584.81298828125 406.7890014648438 L 585.906982421875 406.7890014648438 L 596.906005859375 406.7890014648438 L 597.9998168945313 406.7890014648438 L 598.334228515625 407.8304748535156 L 600.0512084960938 413.178466796875 L 600.5761108398438 414.8134765625 L 598.8853759765625 415.1138610839844 L 598.4906616210938 415.1839904785156 L 602.8924560546875 415.1839904785156 M 589.8057861328125 391.2369995117188 L 590.9000244140625 391.2369995117188 L 591.9119873046875 391.2369995117188 L 593.006103515625 391.2369995117188 L 593.34033203125 392.2788391113281 L 597.2423706054688 404.44384765625 L 597.8704223632813 406.4020080566406 L 595.8140258789063 406.4020080566406 L 586.9990234375 406.4020080566406 L 584.9427490234375 406.4020080566406 L 585.5706787109375 404.4439697265625 L 589.4716796875 392.2789611816406 L 589.8057861328125 391.2369995117188 M 605.6950073242188 416.6839904785156 L 596.2760009765625 416.6839904785156 L 596.2760009765625 414.0539855957031 L 598.6229858398438 413.6369934082031 L 596.906005859375 408.2890014648438 L 585.906982421875 408.2890014648438 L 584.1909790039063 413.6369934082031 L 586.5369873046875 414.0539855957031 L 586.5369873046875 416.6839904785156 L 577.1179809570313 416.6839904785156 L 577.1179809570313 414.0700073242188 L 579.1900024414063 413.7730102539063 L 588.6640014648438 386.7869873046875 L 594.2119750976563 386.7869873046875 L 603.6209716796875 413.7730102539063 L 605.6950073242188 414.0700073242188 L 605.6950073242188 416.6839904785156 Z M 590.9000244140625 392.7369995117188 L 586.9990234375 404.9020080566406 L 595.8140258789063 404.9020080566406 L 591.9119873046875 392.7369995117188 L 590.9000244140625 392.7369995117188 Z"/></g><g class="d"><path class="f" d="M 623.8043212890625 415.9336853027344 L 613.5702514648438 415.9336853027344 L 613.5702514648438 414.6661682128906 L 616.304931640625 414.1419677734375 L 616.9137573242188 414.0252380371094 L 616.9137573242188 413.4053649902344 L 616.9137573242188 390.3873901367188 L 616.9137573242188 389.6373901367188 L 616.1637573242188 389.6373901367188 L 609.2743530273438 389.6373901367188 L 608.57763671875 389.6373901367188 L 608.5263671875 390.3321838378906 L 608.3206176757813 393.119873046875 L 606.1554565429688 393.119873046875 L 606.1554565429688 387.537109375 L 631.2619018554688 387.537109375 L 631.2619018554688 393.119873046875 L 629.0756225585938 393.119873046875 L 628.869873046875 390.3321838378906 L 628.818603515625 389.6373901367188 L 628.1218872070313 389.6373901367188 L 621.2113037109375 389.6373901367188 L 620.4613037109375 389.6373901367188 L 620.4613037109375 390.3873901367188 L 620.4613037109375 413.4053649902344 L 620.4613037109375 414.0252380371094 L 621.070068359375 414.1419372558594 L 623.8043212890625 414.6661682128906 L 623.8043212890625 415.9336853027344 Z"/><path class="g" d="M 622.5205078125 415.1836853027344 L 620.9288330078125 414.8785400390625 L 619.7113037109375 414.6451110839844 L 619.7113037109375 413.4053649902344 L 619.7113037109375 390.3873901367188 L 619.7113037109375 388.8873901367188 L 621.2113037109375 388.8873901367188 L 628.1218872070313 388.8873901367188 L 629.5152587890625 388.8873901367188 L 629.6177978515625 390.2769775390625 L 629.7722778320313 392.369873046875 L 630.5119018554688 392.369873046875 L 630.5119018554688 388.287109375 L 606.9054565429688 388.287109375 L 606.9054565429688 392.369873046875 L 607.6239624023438 392.369873046875 L 607.7784423828125 390.2769775390625 L 607.8809814453125 388.8873901367188 L 609.2743530273438 388.8873901367188 L 616.1637573242188 388.8873901367188 L 617.6637573242188 388.8873901367188 L 617.6637573242188 390.3873901367188 L 617.6637573242188 413.4053649902344 L 617.6637573242188 414.6451416015625 L 616.4461669921875 414.8785400390625 L 614.8543701171875 415.1836853027344 L 622.5205078125 415.1836853027344 M 624.5543212890625 416.6836853027344 L 612.8202514648438 416.6836853027344 L 612.8202514648438 414.0462951660156 L 616.1637573242188 413.4053649902344 L 616.1637573242188 390.3873901367188 L 609.2743530273438 390.3873901367188 L 609.017333984375 393.869873046875 L 605.4054565429688 393.869873046875 L 605.4054565429688 386.787109375 L 632.0119018554688 386.787109375 L 632.0119018554688 393.869873046875 L 628.37890625 393.869873046875 L 628.1218872070313 390.3873901367188 L 621.2113037109375 390.3873901367188 L 621.2113037109375 413.4053649902344 L 624.5543212890625 414.0462951660156 L 624.5543212890625 416.6836853027344 Z"/></g><g class="d"><path class="f" d="M 661.416015625 415.9339904785156 L 659.5339965820313 415.9339904785156 C 657.9479370117188 415.9339904785156 656.8623657226563 415.5615234375 656.3074340820313 414.8269348144531 C 655.6641845703125 413.9752807617188 655.3380126953125 412.8192443847656 655.3380126953125 411.3909912109375 L 655.3380126953125 409.6180114746094 C 655.3380126953125 407.7615051269531 654.8079223632813 406.2540283203125 653.7625122070313 405.1373901367188 C 652.7012329101563 404.0056762695313 651.2317504882813 403.4052429199219 649.3945922851563 403.352294921875 L 649.3838500976563 403.3519897460938 L 649.3731079101563 403.3519897460938 L 643.6281127929688 403.3510131835938 L 642.8779907226563 403.3508911132813 L 642.8779907226563 404.1010131835938 L 642.8779907226563 413.4049987792969 L 642.8779907226563 414.0248718261719 L 643.4867553710938 414.1415710449219 L 646.2210083007813 414.6658630371094 L 646.2210083007813 415.9339904785156 L 636.0079956054688 415.9339904785156 L 636.0079956054688 414.6651306152344 L 638.7221069335938 414.1414184570313 L 639.3300170898438 414.0241088867188 L 639.3300170898438 413.4049987792969 L 639.3300170898438 390.0880126953125 L 639.3300170898438 389.4689025878906 L 638.7221069335938 389.3515930175781 L 636.0079956054688 388.827880859375 L 636.0079956054688 387.5369873046875 L 648.6690063476563 387.5369873046875 C 651.8790283203125 387.5369873046875 654.398193359375 388.2525939941406 656.156494140625 389.6639099121094 C 657.8493041992188 391.0211486816406 658.6719970703125 392.8663024902344 658.6719970703125 395.3049926757813 C 658.6719970703125 396.5895080566406 658.3434448242188 397.6631469726563 657.6676025390625 398.5872802734375 C 656.97119140625 399.5407104492188 655.9091186523438 400.333740234375 654.5106811523438 400.9447021484375 L 652.9927978515625 401.6077270507813 L 651.1043090820313 402.4326171875 L 653.0812377929688 403.0144958496094 L 654.6712036132813 403.4824829101563 C 656.185791015625 403.9273681640625 657.2680053710938 404.6448059082031 657.8880615234375 405.6149291992188 C 658.5510864257813 406.6493225097656 658.8870239257813 407.9814147949219 658.8870239257813 409.5750122070313 L 658.8870239257813 411.156005859375 C 658.8870239257813 412.1285705566406 659.1097412109375 412.9300537109375 659.5490112304688 413.5381774902344 C 659.9760131835938 414.1338806152344 660.6032104492188 414.5226745605469 661.416015625 414.6958618164063 L 661.416015625 415.9339904785156 Z M 642.8779907226563 389.6369934082031 L 642.8779907226563 390.3869934082031 L 642.8779907226563 400.5020141601563 L 642.8779907226563 401.2520141601563 L 643.6279907226563 401.2520141601563 L 648.5609741210938 401.2520141601563 C 650.6267700195313 401.2520141601563 652.2416381835938 400.7697143554688 653.3607177734375 399.8184814453125 C 654.5446166992188 398.8130798339844 655.14501953125 397.3880004882813 655.14501953125 395.5830078125 C 655.14501953125 393.8118896484375 654.5697631835938 392.3597412109375 653.435302734375 391.2668762207031 C 652.3125 390.1853637695313 650.7089233398438 389.6369934082031 648.6690063476563 389.6369934082031 L 643.6279907226563 389.6369934082031 L 642.8779907226563 389.6369934082031 Z"/><path class="g" d="M 660.4749755859375 415.1839904785156 C 659.7132568359375 414.8626098632813 659.2321166992188 414.3831481933594 658.9385375976563 413.9738464355469 C 658.40673828125 413.2357788085938 658.1370239257813 412.2877197265625 658.1370239257813 411.156005859375 L 658.1370239257813 409.5750122070313 C 658.1370239257813 408.1272277832031 657.8410034179688 406.9313049316406 657.2561645507813 406.0188598632813 C 656.7363891601563 405.2056884765625 655.7957153320313 404.594482421875 654.45947265625 404.2019653320313 L 653.5406494140625 403.9315185546875 C 653.8143310546875 404.1387023925781 654.0709228515625 404.369873046875 654.3099975585938 404.6248168945313 C 655.4898071289063 405.8849487304688 656.0880126953125 407.5649108886719 656.0880126953125 409.6180114746094 L 656.0880126953125 411.3909912109375 C 656.0880126953125 412.6524353027344 656.3632202148438 413.6563720703125 656.9058837890625 414.3748779296875 C 657.4110717773438 415.0436096191406 658.6138916015625 415.1839904785156 659.5339965820313 415.1839904785156 L 660.4749755859375 415.1839904785156 M 644.9405517578125 415.1839904785156 L 643.3455200195313 414.878173828125 L 642.1279907226563 414.6447143554688 L 642.1279907226563 413.4049987792969 L 642.1279907226563 404.1010131835938 L 642.1279907226563 402.6007385253906 L 643.6282348632813 402.6010131835938 L 649.0234375 402.6019287109375 L 648.9155883789063 402.5701904296875 L 650.6129760742188 401.8287963867188 C 649.9802856445313 401.9441223144531 649.2958374023438 402.0020141601563 648.5609741210938 402.0020141601563 L 643.6279907226563 402.0020141601563 L 642.1279907226563 402.0020141601563 L 642.1279907226563 400.5020141601563 L 642.1279907226563 390.3869934082031 L 642.1279907226563 388.8869934082031 L 643.6279907226563 388.8869934082031 L 648.6690063476563 388.8869934082031 C 650.9096069335938 388.8869934082031 652.6882934570313 389.5059509277344 653.9556274414063 390.7267150878906 C 655.2244262695313 391.9489440917969 655.89501953125 393.6282348632813 655.89501953125 395.5830078125 C 655.89501953125 397.589599609375 655.1864624023438 399.251953125 653.846435546875 400.3899230957031 C 653.824462890625 400.4085998535156 653.802490234375 400.4270324707031 653.7802124023438 400.4453735351563 L 654.21044921875 400.2574462890625 C 655.485595703125 399.7003479003906 656.4448852539063 398.9896850585938 657.062255859375 398.14453125 C 657.6488037109375 397.3424987792969 657.9219970703125 396.440185546875 657.9219970703125 395.3049926757813 C 657.9219970703125 393.0780029296875 657.2120361328125 391.4715270996094 655.68701171875 390.2488098144531 C 654.0652465820313 388.947021484375 651.7039794921875 388.2869873046875 648.6690063476563 388.2869873046875 L 637.163330078125 388.2869873046875 L 638.8641967773438 388.6151733398438 L 640.0800170898438 388.8497924804688 L 640.0800170898438 390.0880126953125 L 640.0800170898438 413.4049987792969 L 640.0800170898438 414.6432495117188 L 638.8641967773438 414.8778381347656 L 637.2774658203125 415.1839904785156 L 644.9405517578125 415.1839904785156 M 662.166015625 416.6839904785156 L 659.5339965820313 416.6839904785156 C 657.7000122070313 416.6839904785156 656.4130249023438 416.2109985351563 655.708984375 415.2789916992188 C 654.9650268554688 414.2940063476563 654.5880126953125 412.9859924316406 654.5880126953125 411.3909912109375 L 654.5880126953125 409.6180114746094 C 654.5880126953125 407.9580078125 654.1259765625 406.6229858398438 653.2150268554688 405.6499938964844 C 652.2960205078125 404.6700134277344 651.0040283203125 404.1489868164063 649.3729858398438 404.1019897460938 L 643.6279907226563 404.1010131835938 L 643.6279907226563 413.4049987792969 L 646.9710083007813 414.0459899902344 L 646.9710083007813 416.6839904785156 L 635.2579956054688 416.6839904785156 L 635.2579956054688 414.0459899902344 L 638.5800170898438 413.4049987792969 L 638.5800170898438 390.0880126953125 L 635.2579956054688 389.4469909667969 L 635.2579956054688 386.7869873046875 L 648.6690063476563 386.7869873046875 C 652.0540161132813 386.7869873046875 654.7310180664063 387.5580139160156 656.6259765625 389.0790100097656 C 658.5079956054688 390.5880126953125 659.4219970703125 392.625 659.4219970703125 395.3049926757813 C 659.4219970703125 396.7550048828125 659.0460205078125 397.9729919433594 658.2730102539063 399.0299987792969 C 657.4979858398438 400.0910034179688 656.3330078125 400.9670104980469 654.8109741210938 401.6319885253906 L 653.2930297851563 402.2950134277344 L 654.8829956054688 402.7630004882813 C 656.5750122070313 403.260009765625 657.7990112304688 404.0830078125 658.52001953125 405.2109985351563 C 659.260986328125 406.3670043945313 659.6370239257813 407.8349914550781 659.6370239257813 409.5750122070313 L 659.6370239257813 411.156005859375 C 659.6370239257813 411.9660034179688 659.8109741210938 412.6199951171875 660.156982421875 413.0989990234375 C 660.5289916992188 413.6180114746094 661.125 413.9280090332031 661.9290161132813 414.0199890136719 L 662.166015625 414.0530090332031 L 662.166015625 416.6839904785156 Z M 643.6279907226563 390.3869934082031 L 643.6279907226563 400.5020141601563 L 648.5609741210938 400.5020141601563 C 650.4429931640625 400.5020141601563 651.89501953125 400.0799865722656 652.875 399.2470092773438 C 653.8829956054688 398.3909912109375 654.39501953125 397.1579895019531 654.39501953125 395.5830078125 C 654.39501953125 394.0239868164063 653.89697265625 392.7529907226563 652.9149780273438 391.8070068359375 C 651.93701171875 390.864990234375 650.5079956054688 390.3869934082031 648.6690063476563 390.3869934082031 L 643.6279907226563 390.3869934082031 Z"/></g><g class="d"><path class="f" d="M 679.1640014648438 416.3819885253906 C 675.3782958984375 416.3819885253906 672.2864990234375 415.0363159179688 669.9744873046875 412.3823547363281 C 667.6139526367188 409.6717834472656 666.4169921875 406.1688537597656 666.4169921875 401.9710083007813 L 666.4169921875 401.5010070800781 C 666.4169921875 397.3287658691406 667.6115112304688 393.83154296875 669.9674072265625 391.1065063476563 C 672.271728515625 388.440673828125 675.3588256835938 387.0889892578125 679.1430053710938 387.0889892578125 C 682.9446411132813 387.0889892578125 686.0584716796875 388.4429321289063 688.3978271484375 391.1132202148438 C 690.7854614257813 393.83642578125 691.9959716796875 397.331298828125 691.9959716796875 401.5010070800781 L 691.9959716796875 401.9710083007813 C 691.9959716796875 406.1685791015625 690.7896728515625 409.6699829101563 688.4105834960938 412.3779602050781 C 686.0770874023438 415.0348815917969 682.9661254882813 416.3819885253906 679.1640014648438 416.3819885253906 Z M 679.1430053710938 389.2529907226563 C 676.0377807617188 389.2529907226563 673.675537109375 390.466796875 672.121826171875 392.8607177734375 C 670.6912231445313 395.0686645507813 669.9660034179688 397.9610595703125 669.9660034179688 401.4580078125 L 669.9660034179688 401.9710083007813 C 669.9660034179688 405.4983825683594 670.699462890625 408.4097290039063 672.1461181640625 410.6241760253906 C 673.7139892578125 413.0234985351563 676.0751342773438 414.239990234375 679.1640014648438 414.239990234375 C 682.2777709960938 414.239990234375 684.6621704101563 413.0263366699219 686.2508544921875 410.6327209472656 C 687.7233276367188 408.4151000976563 688.469970703125 405.5008239746094 688.469970703125 401.9710083007813 L 688.469970703125 401.4580078125 C 688.469970703125 397.9837036132813 687.7151489257813 395.0932922363281 686.2265014648438 392.8670959472656 C 684.6244506835938 390.4690551757813 682.2412109375 389.2529907226563 679.1430053710938 389.2529907226563 Z"/><path class="g" d="M 679.1640014648438 415.6319885253906 C 680.9613647460938 415.6319885253906 682.6056518554688 415.3138122558594 684.051025390625 414.6863098144531 C 685.481689453125 414.0652160644531 686.7588500976563 413.1220703125 687.8471069335938 411.8829650878906 C 690.1024169921875 409.3158874511719 691.2459716796875 405.9810180664063 691.2459716796875 401.9710083007813 L 691.2459716796875 401.5010070800781 C 691.2459716796875 397.5185852050781 690.0980224609375 394.1900634765625 687.833740234375 391.6074523925781 C 686.7420654296875 390.3613891601563 685.462158203125 389.4130249023438 684.0296020507813 388.7887268066406 C 682.5835571289063 388.1585388183594 680.939453125 387.8389892578125 679.1430053710938 387.8389892578125 C 677.3550415039063 387.8389892578125 675.7222900390625 388.1577453613281 674.2901611328125 388.786376953125 C 672.8724365234375 389.40869140625 671.6089477539063 390.3542785644531 670.5347900390625 391.5970153808594 C 668.300048828125 394.181884765625 667.1669921875 397.5140686035156 667.1669921875 401.5010070800781 L 667.1669921875 401.9710083007813 C 667.1669921875 405.9825439453125 668.3018798828125 409.3197326660156 670.5400390625 411.8897094726563 C 671.6176147460938 413.1266784667969 672.88427734375 414.0682067871094 674.3048095703125 414.6880798339844 C 675.7401123046875 415.3144226074219 677.375 415.6319885253906 679.1640014648438 415.6319885253906 M 679.1430053710938 388.5029907226563 C 682.4598388671875 388.5029907226563 685.125 389.8681030273438 686.8499145507813 392.4501953125 C 688.4225463867188 394.8019714355469 689.219970703125 397.8326416015625 689.219970703125 401.4580078125 L 689.219970703125 401.9710083007813 C 689.219970703125 405.6510009765625 688.4312133789063 408.7048645019531 686.875732421875 411.0474853515625 C 685.163818359375 413.6266784667969 682.4971923828125 414.989990234375 679.1640014648438 414.989990234375 C 675.8530883789063 414.989990234375 673.2092895507813 413.6222229003906 671.5181884765625 411.0343627929688 C 669.9906005859375 408.6958923339844 669.2160034179688 405.6465148925781 669.2160034179688 401.9710083007813 L 669.2160034179688 401.4580078125 C 669.2160034179688 397.8139038085938 669.9818115234375 394.7843017578125 671.4927368164063 392.452392578125 C 673.1696166992188 389.8686828613281 675.8150024414063 388.5029907226563 679.1430053710938 388.5029907226563 M 679.1640014648438 417.1319885253906 C 675.1519775390625 417.1319885253906 671.8699951171875 415.7000122070313 669.4089965820313 412.875 C 666.927001953125 410.0249938964844 665.6669921875 406.3569946289063 665.6669921875 401.9710083007813 L 665.6669921875 401.5010070800781 C 665.6669921875 397.1419982910156 666.9240112304688 393.4800109863281 669.4000244140625 390.6159973144531 C 671.85400390625 387.7770080566406 675.1309814453125 386.3389892578125 679.1430053710938 386.3389892578125 C 683.1690063476563 386.3389892578125 686.4730224609375 387.7780151367188 688.9619750976563 390.6189880371094 C 691.4730224609375 393.4830017089844 692.7459716796875 397.1440124511719 692.7459716796875 401.5010070800781 L 692.7459716796875 401.9710083007813 C 692.7459716796875 406.3559875488281 691.4769897460938 410.0239868164063 688.9739990234375 412.8729858398438 C 686.4920043945313 415.6990051269531 683.1909790039063 417.1319885253906 679.1640014648438 417.1319885253906 Z M 679.1430053710938 390.0029907226563 C 676.3090209960938 390.0029907226563 674.1580200195313 391.1010131835938 672.7509765625 393.2690124511719 C 671.4000244140625 395.35400390625 670.7160034179688 398.1099853515625 670.7160034179688 401.4580078125 L 670.7160034179688 401.9710083007813 C 670.7160034179688 405.3500061035156 671.4080200195313 408.1229858398438 672.7739868164063 410.2139892578125 C 674.1939697265625 412.3869934082031 676.343994140625 413.489990234375 679.1640014648438 413.489990234375 C 682.010986328125 413.489990234375 684.1849975585938 412.3890075683594 685.6259765625 410.2179870605469 C 687.0150146484375 408.1260070800781 687.719970703125 405.3510131835938 687.719970703125 401.9710083007813 L 687.719970703125 401.4580078125 C 687.719970703125 398.135009765625 687.0079956054688 395.385009765625 685.60302734375 393.2839965820313 C 684.1480102539063 391.1059875488281 681.9739990234375 390.0029907226563 679.1430053710938 390.0029907226563 Z"/></g><g class="d"><path class="f" d="M 710.1950073242188 416.3819885253906 C 706.4090576171875 416.3819885253906 703.3175659179688 415.036376953125 701.006591796875 412.3824768066406 C 698.6458740234375 409.6737365722656 697.448974609375 406.1708984375 697.448974609375 401.9710083007813 L 697.448974609375 401.5010070800781 C 697.448974609375 397.3270568847656 698.6431274414063 393.8298645019531 700.998291015625 391.1065979003906 C 703.302734375 388.440673828125 706.3894653320313 387.0889892578125 710.1729736328125 387.0889892578125 C 713.9750366210938 387.0889892578125 717.0895385742188 388.4429626464844 719.4299926757813 391.1133422851563 C 721.8175048828125 393.8364868164063 723.0280151367188 397.3313903808594 723.0280151367188 401.5010070800781 L 723.0280151367188 401.9710083007813 C 723.0280151367188 406.1677856445313 721.8213500976563 409.669189453125 719.4415893554688 412.3779602050781 C 717.1080932617188 415.0348815917969 713.9971313476563 416.3819885253906 710.1950073242188 416.3819885253906 Z M 710.1729736328125 389.2529907226563 C 707.0679931640625 389.2529907226563 704.7063598632813 390.4668884277344 703.1537475585938 392.8609313964844 C 701.721923828125 395.0690307617188 700.9959716796875 397.9614868164063 700.9959716796875 401.4580078125 L 700.9959716796875 401.9710083007813 C 700.9959716796875 405.4984130859375 701.7298583984375 408.4097900390625 703.1771850585938 410.6243286132813 C 704.7449951171875 413.0234985351563 707.1061401367188 414.239990234375 710.1950073242188 414.239990234375 C 713.3087768554688 414.239990234375 715.6931762695313 413.0263366699219 717.2818603515625 410.6327514648438 C 718.7536010742188 408.4183044433594 719.5 405.5039367675781 719.5 401.9710083007813 L 719.5 401.4580078125 C 719.5 397.9824829101563 718.7454833984375 395.0917663574219 717.2574462890625 392.8661193847656 C 715.6551513671875 390.4686584472656 713.2715454101563 389.2529907226563 710.1729736328125 389.2529907226563 Z"/><path class="g" d="M 710.1950073242188 415.6319885253906 C 711.9931030273438 415.6319885253906 713.6375732421875 415.3138427734375 715.0827026367188 414.6863403320313 C 716.5127563476563 414.0653991699219 717.7896728515625 413.1222839355469 718.8781127929688 411.8829650878906 C 721.1341552734375 409.3150939941406 722.2780151367188 405.980224609375 722.2780151367188 401.9710083007813 L 722.2780151367188 401.5010070800781 C 722.2780151367188 397.5186462402344 721.1300659179688 394.1901245117188 718.865966796875 391.6076965332031 C 717.7737426757813 390.3614807128906 716.4934692382813 389.4130554199219 715.0607299804688 388.7887573242188 C 713.6143798828125 388.1585388183594 711.9699096679688 387.8389892578125 710.1729736328125 387.8389892578125 C 708.385498046875 387.8389892578125 706.7531127929688 388.1577453613281 705.321044921875 388.786376953125 C 703.9033813476563 389.40869140625 702.6399536132813 390.3543090820313 701.5656127929688 391.5971984863281 C 699.3316650390625 394.1802978515625 698.198974609375 397.5123901367188 698.198974609375 401.5010070800781 L 698.198974609375 401.9710083007813 C 698.198974609375 405.9844665527344 699.333740234375 409.321533203125 701.5722045898438 411.8899230957031 C 702.6492309570313 413.1267700195313 703.91552734375 414.0682373046875 705.3359375 414.6880798339844 C 706.7711791992188 415.3144226074219 708.406005859375 415.6319885253906 710.1950073242188 415.6319885253906 M 710.1729736328125 388.5029907226563 C 713.4901733398438 388.5029907226563 716.1555786132813 389.86767578125 717.8809204101563 392.4492797851563 C 719.4529418945313 394.8004760742188 720.25 397.8314208984375 720.25 401.4580078125 L 720.25 401.9710083007813 C 720.25 405.6542358398438 719.46142578125 408.708251953125 717.90673828125 411.0474853515625 C 716.19482421875 413.626708984375 713.5281372070313 414.989990234375 710.1950073242188 414.989990234375 C 706.8840942382813 414.989990234375 704.2402954101563 413.6222229003906 702.5493774414063 411.0346374511719 C 701.0209350585938 408.696044921875 700.2459716796875 405.6466064453125 700.2459716796875 401.9710083007813 L 700.2459716796875 401.4580078125 C 700.2459716796875 397.8142395019531 701.0125732421875 394.7845153808594 702.5244750976563 392.4528198242188 C 704.2003173828125 389.8688354492188 706.8450927734375 388.5029907226563 710.1729736328125 388.5029907226563 M 710.1950073242188 417.1319885253906 C 706.1829833984375 417.1319885253906 702.9010009765625 415.7000122070313 700.4409790039063 412.875 C 697.9580078125 410.0260009765625 696.698974609375 406.3580017089844 696.698974609375 401.9710083007813 L 696.698974609375 401.5010070800781 C 696.698974609375 397.1409912109375 697.9550170898438 393.47900390625 700.4310302734375 390.6159973144531 C 702.885009765625 387.7770080566406 706.1619873046875 386.3389892578125 710.1729736328125 386.3389892578125 C 714.2000122070313 386.3389892578125 717.5040283203125 387.7780151367188 719.9940185546875 390.6189880371094 C 722.5050048828125 393.4830017089844 723.7780151367188 397.1440124511719 723.7780151367188 401.5010070800781 L 723.7780151367188 401.9710083007813 C 723.7780151367188 406.3559875488281 722.5079956054688 410.0239868164063 720.0050048828125 412.8729858398438 C 717.5230102539063 415.6990051269531 714.2239990234375 417.1319885253906 710.1950073242188 417.1319885253906 Z M 710.1729736328125 390.0029907226563 C 707.3389892578125 390.0029907226563 705.1890258789063 391.1010131835938 703.7830200195313 393.2690124511719 C 702.4310302734375 395.35400390625 701.7459716796875 398.1090087890625 701.7459716796875 401.4580078125 L 701.7459716796875 401.9710083007813 C 701.7459716796875 405.3500061035156 702.4390258789063 408.1239929199219 703.8049926757813 410.2139892578125 C 705.2249755859375 412.3869934082031 707.3759765625 413.489990234375 710.1950073242188 413.489990234375 C 713.0419921875 413.489990234375 715.2160034179688 412.3890075683594 716.656982421875 410.2179870605469 C 718.0460205078125 408.1279907226563 718.75 405.3529968261719 718.75 401.9710083007813 L 718.75 401.4580078125 C 718.75 398.1329956054688 718.0380249023438 395.3829956054688 716.6339721679688 393.2829895019531 C 715.1790161132813 391.1059875488281 713.0040283203125 390.0029907226563 710.1729736328125 390.0029907226563 Z"/></g><g class="d"><path class="f" d="M 764.6451416015625 415.9336853027344 L 754.4312133789063 415.9336853027344 L 754.4312133789063 414.6649475097656 L 757.1456909179688 414.1412658691406 L 757.7536010742188 414.0239868164063 L 757.7536010742188 413.4048461914063 L 757.7536010742188 408.0325622558594 L 758.3761596679688 393.8069763183594 L 758.4052124023438 393.1442260742188 L 757.7509155273438 393.0345153808594 L 756.5978393554688 392.8411560058594 L 755.9818725585938 392.7378540039063 L 755.768798828125 393.3249206542969 L 747.5625610351563 415.9336853027344 L 745.26318359375 415.9336853027344 L 737.1000366210938 393.41064453125 L 736.8871459960938 392.8233642578125 L 736.2710571289063 392.9264831542969 L 735.1160278320313 393.1198425292969 L 734.46142578125 393.2294311523438 L 734.4906005859375 393.8925476074219 L 735.1141967773438 408.0591125488281 L 735.1141967773438 413.4053649902344 L 735.1141967773438 414.0252380371094 L 735.7229614257813 414.1419372558594 L 738.4572143554688 414.6661682128906 L 738.4572143554688 415.9336853027344 L 728.2442626953125 415.9336853027344 L 728.2442626953125 414.6649169921875 L 730.957763671875 414.1412658691406 L 731.565673828125 414.0239562988281 L 731.565673828125 413.4048461914063 L 731.565673828125 390.0875244140625 L 731.565673828125 389.4684143066406 L 730.957763671875 389.3511047363281 L 728.2442626953125 388.8274536132813 L 728.2442626953125 387.537109375 L 737.4111328125 387.537109375 L 745.1866455078125 409.9546508789063 L 745.361572265625 410.4588928222656 L 745.895263671875 410.4588928222656 L 746.8848876953125 410.4588928222656 L 747.4171752929688 410.4588928222656 L 747.5928344726563 409.9564514160156 L 755.4325561523438 387.537109375 L 764.6451416015625 387.537109375 L 764.6451416015625 388.8262023925781 L 761.910888671875 389.3504638671875 L 761.3021240234375 389.4671630859375 L 761.3021240234375 390.0870361328125 L 761.3021240234375 413.4053649902344 L 761.3021240234375 414.0252380371094 L 761.910888671875 414.1419372558594 L 764.6451416015625 414.6661682128906 L 764.6451416015625 415.9336853027344 Z"/><path class="g" d="M 763.361328125 415.1836853027344 L 761.7696533203125 414.8785400390625 L 760.5521240234375 414.6451110839844 L 760.5521240234375 413.4053649902344 L 760.5521240234375 390.0870361328125 L 760.5521240234375 388.8472900390625 L 761.7696533203125 388.6138610839844 L 763.473876953125 388.287109375 L 755.96484375 388.287109375 L 748.3008422851563 410.2040100097656 L 747.9494018554688 411.2088928222656 L 746.8848876953125 411.2088928222656 L 745.895263671875 411.2088928222656 L 744.827880859375 411.2088928222656 L 744.4780883789063 410.200439453125 L 736.87744140625 388.287109375 L 729.4024047851563 388.287109375 L 731.0999145507813 388.6146850585938 L 732.315673828125 388.8493041992188 L 732.315673828125 390.0875244140625 L 732.315673828125 413.4048461914063 L 732.315673828125 414.64306640625 L 731.0999145507813 414.877685546875 L 729.51416015625 415.1836853027344 L 737.1734008789063 415.1836853027344 L 735.581787109375 414.8785400390625 L 734.3641967773438 414.6451110839844 L 734.3641967773438 413.4053649902344 L 734.3641967773438 408.0757446289063 L 733.7413330078125 393.925537109375 L 733.6829223632813 392.5993347167969 L 734.9921875 392.3801574707031 L 736.147216796875 392.1867980957031 L 737.3794555664063 391.9804992675781 L 737.8051147460938 393.1550903320313 L 745.7890625 415.1836853027344 L 747.036865234375 415.1836853027344 L 755.0638427734375 393.0690307617188 L 755.489990234375 391.8948974609375 L 756.7218627929688 392.1014709472656 L 757.8749389648438 392.2948303222656 L 759.1834716796875 392.5142517089844 L 759.12548828125 393.8397521972656 L 758.5036010742188 408.0491333007813 L 758.5036010742188 413.4048461914063 L 758.5036010742188 414.6431274414063 L 757.2877197265625 414.877685546875 L 755.7015991210938 415.1836853027344 L 763.361328125 415.1836853027344 M 765.3951416015625 416.6836853027344 L 753.6812133789063 416.6836853027344 L 753.6812133789063 414.0458068847656 L 757.0036010742188 413.4048461914063 L 757.0036010742188 408.0162353515625 L 757.6268920898438 393.774169921875 L 756.4738159179688 393.580810546875 L 748.0881958007813 416.6836853027344 L 744.7372436523438 416.6836853027344 L 736.3948974609375 393.6661987304688 L 735.2398681640625 393.8595581054688 L 735.8641967773438 408.042724609375 L 735.8641967773438 413.4053649902344 L 739.2072143554688 414.0462951660156 L 739.2072143554688 416.6836853027344 L 727.4942626953125 416.6836853027344 L 727.4942626953125 414.0458068847656 L 730.815673828125 413.4048461914063 L 730.815673828125 390.0875244140625 L 727.4942626953125 389.4465637207031 L 727.4942626953125 386.787109375 L 737.94482421875 386.787109375 L 745.895263671875 409.7088928222656 L 746.8848876953125 409.7088928222656 L 754.9002685546875 386.787109375 L 765.3951416015625 386.787109375 L 765.3951416015625 389.4460754394531 L 762.0521240234375 390.0870361328125 L 762.0521240234375 413.4053649902344 L 765.3951416015625 414.0462951660156 L 765.3951416015625 416.6836853027344 Z"/></g></g><path class="e" d="M528.294,386.941a14.6,14.6,0,0,1,6.038,1.208,13.065,13.065,0,0,1,4.11,2.84v4.478h-2.4l-.484-3.123-.061-.389-.279-.279a7.768,7.768,0,0,0-2.751-1.727,10.547,10.547,0,0,0-3.741-.613,8.533,8.533,0,0,0-7.24,3.434,13.77,13.77,0,0,0-2.435,8.41v1.089a13.911,13.911,0,0,0,2.42,8.426,8.4,8.4,0,0,0,7.148,3.461,11.444,11.444,0,0,0,3.774-.6,6.844,6.844,0,0,0,2.865-1.781l.244-.268.056-.358.484-3.122h2.4v4.484a12.451,12.451,0,0,1-4.091,2.83,14.906,14.906,0,0,1-6.057,1.189,12.11,12.11,0,0,1-9.4-3.947,14.466,14.466,0,0,1-3.688-10.313v-1.046a14.759,14.759,0,0,1,3.67-10.317,12.067,12.067,0,0,1,9.414-3.965m0-1.206a13.331,13.331,0,0,0-10.308,4.358A15.856,15.856,0,0,0,514,401.223v1.046a15.752,15.752,0,0,0,4.008,11.13,13.373,13.373,0,0,0,10.286,4.336,16.043,16.043,0,0,0,6.547-1.292,13.4,13.4,0,0,0,4.811-3.471V406.82H535l-.643,4.144a5.641,5.641,0,0,1-2.368,1.452,10.175,10.175,0,0,1-3.375.534,7.213,7.213,0,0,1-6.172-2.969,12.681,12.681,0,0,1-2.186-7.712V401.18a12.542,12.542,0,0,1,2.2-7.69,7.346,7.346,0,0,1,6.268-2.948,9.326,9.326,0,0,1,3.311.534,6.513,6.513,0,0,1,2.325,1.453l.643,4.144h4.65V390.52a13.994,13.994,0,0,0-4.821-3.47,15.723,15.723,0,0,0-6.537-1.315Z"/><path class="e" d="M573.2,387.39v1.558l-2.362.453-.981.188V413.9l.981.189,2.362.452v1.537H562.7v-1.537l2.361-.452.982-.189V403.157h-15.15V413.9l.982.189,2.361.452v1.537h-10.5v-1.538l2.341-.452.981-.189V389.59l-.981-.189-2.341-.452V387.39h10.5v1.558l-2.361.453-.982.188v11.174h15.15V389.589l-.982-.188-2.361-.453V387.39h10.5m1.21-1.206H561.49v3.76l3.343.641v8.971H552.1v-8.971l3.343-.641v-3.76H542.524v3.76l3.322.641v22.322l-3.322.641v3.739h12.922v-3.739l-3.343-.641v-8.544h12.73v8.544l-3.343.641v3.739h12.922v-3.739l-3.343-.641V390.585l3.343-.641v-3.76Z"/><path class="e" d="M593.782,387.39l9.147,26.234.242.693.728.105,1.192.171v1.488h-8.209v-1.522l1.166-.207,1.362-.242-.422-1.313-1.371-4.273-.27-.838H585.466l-.27.838-1.371,4.273-.421,1.313,1.362.242,1.166.207v1.522h-8.209v-1.488l1.191-.171.727-.1.242-.691,9.211-26.237h4.688m-7.611,18.115h10.472l-.505-1.573-3.515-10.959-.269-.839h-1.9l-.269.839-3.515,10.959-.5,1.573m8.472-19.321h-6.408l-9.494,27.044-2.228.32v3.739h10.629v-3.739l-2.164-.384,1.371-4.272h10.115l1.372,4.272-2.164.384v3.739H606.3v-3.739l-2.229-.32-9.429-27.044ZM587.828,404.3l3.514-10.959h.129l3.515,10.959Z"/><path class="e" d="M631.407,387.39v5.877h-2.466l-.174-2.365-.083-1.118h-8.077V413.9l.981.189,2.362.452v1.537H613.425v-1.537l2.362-.452.982-.189V389.784h-8.056l-.083,1.118-.174,2.365h-2.445V387.39h25.4m1.21-1.206H604.8v8.289h4.779l.257-3.482h5.722v21.916l-3.344.641v3.739H625.16v-3.739l-3.343-.641V390.991h5.743l.257,3.482h4.8v-8.289Z"/><path class="e" d="M648.669,387.39c3.244,0,5.793.726,7.578,2.159a6.908,6.908,0,0,1,2.57,5.756,5.5,5.5,0,0,1-1.032,3.37,7.692,7.692,0,0,1-3.216,2.4l-3.037,1.327,3.18.935a5.54,5.54,0,0,1,3.3,2.194,7.4,7.4,0,0,1,1.021,4.04v1.581a3.847,3.847,0,0,0,.632,2.292,2.875,2.875,0,0,0,1.9,1.127v1.506h-2.027c-1.634,0-2.758-.392-3.342-1.165a5.732,5.732,0,0,1-1-3.525v-1.773a6.179,6.179,0,0,0-1.536-4.381,5.873,5.873,0,0,0-4.3-1.739h-6.332V413.9l.981.189,2.362.452v1.537h-10.5v-1.538l2.341-.452.98-.189V389.59l-.98-.189-2.341-.452V387.39h12.8m-5.646,13.715h5.538a7.106,7.106,0,0,0,4.707-1.4A5.137,5.137,0,0,0,655,395.583a5.608,5.608,0,0,0-1.665-4.211,6.489,6.489,0,0,0-4.666-1.588h-5.646v11.321m5.646-14.921H634.654v3.76l3.321.641v22.322l-3.321.641v3.739h12.922v-3.739l-3.343-.641v-8.2h5.122a4.655,4.655,0,0,1,3.418,1.356,5,5,0,0,1,1.21,3.557v1.773a6.865,6.865,0,0,0,1.243,4.251q1.243,1.646,4.308,1.645h3.237v-3.759l-.772-.107a1.816,1.816,0,0,1-1.35-.674,2.685,2.685,0,0,1-.407-1.591v-1.581a8.529,8.529,0,0,0-1.211-4.689,6.742,6.742,0,0,0-3.977-2.7,8.843,8.843,0,0,0,3.709-2.8,6.728,6.728,0,0,0,1.264-4.081,8.111,8.111,0,0,0-3.022-6.7q-3.021-2.424-8.336-2.425ZM644.233,399.9v-8.908h4.436a5.31,5.31,0,0,1,3.825,1.249,4.426,4.426,0,0,1,1.3,3.343,3.97,3.97,0,0,1-1.307,3.2,5.935,5.935,0,0,1-3.922,1.111Z"/><path class="e" d="M679.143,386.941a11.754,11.754,0,0,1,9.364,4.075,15.392,15.392,0,0,1,3.634,10.485v.47a15.4,15.4,0,0,1-3.622,10.505,11.753,11.753,0,0,1-9.355,4.053,11.634,11.634,0,0,1-9.3-4.049,15.489,15.489,0,0,1-3.593-10.509v-.47a15.531,15.531,0,0,1,3.586-10.492,11.574,11.574,0,0,1,9.284-4.068m.021,27.152a7.851,7.851,0,0,0,6.967-3.542,15.311,15.311,0,0,0,2.194-8.58v-.513a15.087,15.087,0,0,0-2.218-8.509,7.877,7.877,0,0,0-6.964-3.549,7.708,7.708,0,0,0-6.9,3.542,15.487,15.487,0,0,0-2.132,8.516v.513a15.491,15.491,0,0,0,2.156,8.572,7.73,7.73,0,0,0,6.9,3.55m-.021-28.358a12.826,12.826,0,0,0-10.2,4.487,16.625,16.625,0,0,0-3.88,11.279v.47a16.581,16.581,0,0,0,3.889,11.3,13.971,13.971,0,0,0,20.477,0,16.49,16.49,0,0,0,3.922-11.3v-.47a16.488,16.488,0,0,0-3.933-11.279,13.012,13.012,0,0,0-10.275-4.487Zm.021,27.152a6.561,6.561,0,0,1-5.883-3,14.265,14.265,0,0,1-1.96-7.914v-.513a14.254,14.254,0,0,1,1.939-7.861,6.534,6.534,0,0,1,5.883-2.991,6.7,6.7,0,0,1,5.957,3.012,13.854,13.854,0,0,1,2.015,7.84v.513a14.089,14.089,0,0,1-1.993,7.914,6.678,6.678,0,0,1-5.958,3Z"/><path class="e" d="M710.174,386.941a11.758,11.758,0,0,1,9.365,4.075,15.4,15.4,0,0,1,3.634,10.485v.47a15.394,15.394,0,0,1-3.624,10.505,11.748,11.748,0,0,1-9.354,4.053,11.627,11.627,0,0,1-9.3-4.05,15.476,15.476,0,0,1-3.593-10.508v-.47a15.534,15.534,0,0,1,3.585-10.492,11.573,11.573,0,0,1,9.284-4.068m.021,27.152a7.851,7.851,0,0,0,6.967-3.542,15.3,15.3,0,0,0,2.194-8.58v-.513a15.08,15.08,0,0,0-2.218-8.509,7.877,7.877,0,0,0-6.964-3.549,7.7,7.7,0,0,0-6.9,3.542,15.473,15.473,0,0,0-2.134,8.516v.513a15.48,15.48,0,0,0,2.158,8.572,7.73,7.73,0,0,0,6.9,3.55m-.021-28.358a12.829,12.829,0,0,0-10.2,4.487,16.628,16.628,0,0,0-3.878,11.279v.47a16.572,16.572,0,0,0,3.889,11.3,13.97,13.97,0,0,0,20.476,0,16.491,16.491,0,0,0,3.923-11.3v-.47a16.492,16.492,0,0,0-3.933-11.279,13.015,13.015,0,0,0-10.276-4.487Zm.021,27.152a6.559,6.559,0,0,1-5.882-3,14.256,14.256,0,0,1-1.962-7.914v-.513a14.245,14.245,0,0,1,1.94-7.861,6.534,6.534,0,0,1,5.883-2.991,6.7,6.7,0,0,1,5.957,3.012,13.854,13.854,0,0,1,2.015,7.84v.513a14.082,14.082,0,0,1-1.993,7.914,6.679,6.679,0,0,1-5.958,3Z"/><path class="e" d="M764.79,387.39v1.558l-2.362.453-.981.188V413.9l.981.189,2.362.452v1.537h-10.5v-1.538l2.342-.452.98-.189v-5.86l.6-13.709.046-1.065-1.055-.177-.129-.021-.995-.167-.343.946-8.069,22.232h-2.5l-8.027-22.146-.343-.947-.995.167-.129.022-1.055.176.047,1.066.6,13.624v5.86l.981.189,2.362.452v1.537H728.1v-1.538l2.341-.452.98-.189V389.59l-.98-.189-2.341-.452V387.39h9.414l7.669,22.11.282.812h1.85l.283-.809,7.733-22.113h9.459m1.21-1.206H754.471l-8.015,22.922h-.129l-7.951-22.922H726.89v3.76l3.321.641v22.322l-3.321.641v3.739h12.922v-3.739l-3.343-.641v-4.891l-.6-13.65.129-.022,8.316,22.943h4.2l8.358-23.028.129.022-.6,13.735v4.891l-3.322.641v3.739H766v-3.739l-3.343-.641V390.585l3.343-.641v-3.76Z"/></g></svg>